<svg xmlns="http://www.w3.org/2000/svg" width="110" height="55" viewBox="0 0 57 28">
    <g fill="none" transform="rotate(66 32.066 35.892)">
        <path fill="#FE330D" d="M4.988 33.136v8.762c0 1.885 1.527 3.413 3.412 3.414v6.132c0 .507.201.993.56 1.352.359.359.845.56 1.352.56v3.81c1.555 0 2.816-1.26 2.816-2.816v-7.926h.032c.94 0 1.842-.374 2.507-1.039.665-.665 1.039-1.567 1.039-2.507.323 0 .633-.128.861-.357.229-.228.357-.538.357-.861v-9.212l-12.936.688z"/>
        <path fill="#FED467" d="M7.39 33.76v5.34c0 1.426 1.156 2.582 2.582 2.582v4.454c.59 0 1.157-.234 1.575-.651.418-.418.653-.984.653-1.575v-4.766c1.045 0 2.047-.417 2.785-1.156.738-.74 1.151-1.743 1.149-2.788v-1.44H7.39z"/>
        <path fill="#FFF" d="M13.942 21.83l6.578 4.466c1.702 1.157 2.536 3.228 2.112 5.242l-1.698 8.026-5.442-.014-1.55-17.72z"/>
        <path fill="#8CD4EA" d="M9.036 21.812l-6.6 4.434c-1.705 1.15-2.547 3.216-2.132 5.23l1.644 8.032 5.442.014 1.646-17.71z"/>
        <path fill="#FFF" d="M11.544 0L8.63 3.932c-2.922 3.923-4.546 8.661-4.644 13.552v.356L4.736 34l6.718.018 6.574.018L19 17.882v-.356c-.068-4.889-1.66-9.634-4.556-13.574L11.544 0z"/>
        <path fill="#FEAFBD" d="M18.03 34.044L19 17.89v-.356c-.066-4.891-1.66-9.64-4.556-13.582L11.552 0l-.094 34.026 6.572.018z"/>
        <circle cx="11.502" cy="14.411" r="4.152" fill="#FFF" transform="rotate(-89.86 11.502 14.411)"/>
        <circle cx="11.502" cy="14.411" r="3.144" fill="#20C" transform="rotate(-89.86 11.502 14.411)"/>
        <path fill="#FE330D" d="M5.4 54.612c1.41 0 2.554 1.143 2.554 2.554v2.45c-1.41 0-2.554-1.143-2.554-2.554v-2.45zM14.858 51.056v-.932c0-.677.27-1.327.748-1.806.479-.479 1.129-.748 1.806-.748v.932c0 1.41-1.143 2.554-2.554 2.554z"/>
    </g>
</svg>
