<svg width="280" height="394" viewBox="0 0 280 394" fill="none" xmlns="http://www.w3.org/2000/svg">
<rect x="0.5" y="0.5" width="279" height="393" rx="19.5" fill="white" stroke="#D2D2D2"/>
<path fill-rule="evenodd" clip-rule="evenodd" d="M153.755 187.251C152.056 187.251 150.437 187.622 148.961 188.291C150.347 186.102 151.161 183.45 151.161 180.589C151.161 173.084 145.571 167 138.676 167C131.781 167 126.191 173.084 126.191 180.589C126.191 183.313 126.93 185.846 128.197 187.972C126.937 187.507 125.588 187.251 124.184 187.251C117.289 187.251 111.699 193.335 111.699 200.84C111.699 208.346 117.289 214.43 124.184 214.43C125.741 214.43 127.231 214.117 128.606 213.55C128.605 213.553 134.416 211.845 138.235 204.278V208.834C138.235 208.834 136.277 223.196 122.471 224.768H120.267V227.006H157.868V224.768H155.665C141.858 223.196 139.9 208.834 139.9 208.834V204.584C140.611 206.29 144.545 214.627 153.384 214.42C153.508 214.423 153.631 214.43 153.755 214.43C160.651 214.43 166.24 208.346 166.24 200.84C166.24 193.335 160.651 187.251 153.755 187.251Z" fill="#1A1919"/>
<path d="M37.8447 66H30.7891V38.8027L22.3662 41.415V35.6777L37.0879 30.4043H37.8447V66ZM73.3428 51.3027C73.3428 56.2181 72.3255 59.9779 70.291 62.582C68.2565 65.1862 65.278 66.4883 61.3555 66.4883C57.4818 66.4883 54.5195 65.2106 52.4687 62.6553C50.418 60.0999 49.3682 56.4378 49.3193 51.6689V45.126C49.3193 40.1618 50.3447 36.3939 52.3955 33.8223C54.4626 31.2507 57.4329 29.9648 61.3066 29.9648C65.1803 29.9648 68.1426 31.2425 70.1934 33.7979C72.2441 36.3369 73.2939 39.9909 73.3428 44.7598V51.3027ZM66.2871 44.125C66.2871 41.179 65.8802 39.0387 65.0664 37.7041C64.2689 36.3532 63.0156 35.6777 61.3066 35.6777C59.6465 35.6777 58.4176 36.3206 57.6201 37.6064C56.8389 38.876 56.4238 40.8698 56.375 43.5879V52.2305C56.375 55.1276 56.7656 57.2842 57.5469 58.7002C58.3444 60.0999 59.6139 60.7998 61.3555 60.7998C63.0807 60.7998 64.3258 60.1243 65.0908 58.7734C65.8558 57.4225 66.2546 55.3555 66.2871 52.5723V44.125Z" fill="#1A1919"/>
<path d="M211.845 375H204.789V347.803L196.366 350.415V344.678L211.088 339.404H211.845V375ZM247.343 360.303C247.343 365.218 246.326 368.978 244.291 371.582C242.257 374.186 239.278 375.488 235.355 375.488C231.482 375.488 228.52 374.211 226.469 371.655C224.418 369.1 223.368 365.438 223.319 360.669V354.126C223.319 349.162 224.345 345.394 226.396 342.822C228.463 340.251 231.433 338.965 235.307 338.965C239.18 338.965 242.143 340.243 244.193 342.798C246.244 345.337 247.294 348.991 247.343 353.76V360.303ZM240.287 353.125C240.287 350.179 239.88 348.039 239.066 346.704C238.269 345.353 237.016 344.678 235.307 344.678C233.646 344.678 232.418 345.321 231.62 346.606C230.839 347.876 230.424 349.87 230.375 352.588V361.23C230.375 364.128 230.766 366.284 231.547 367.7C232.344 369.1 233.614 369.8 235.355 369.8C237.081 369.8 238.326 369.124 239.091 367.773C239.856 366.423 240.255 364.355 240.287 361.572V353.125Z" fill="#1A1919"/>
</svg>
