<svg width="280" height="394" viewBox="0 0 280 394" fill="none" xmlns="http://www.w3.org/2000/svg">
<rect x="0.5" y="0.5" width="279" height="393" rx="19.5" fill="white" stroke="#D2D2D2"/>
<path fill-rule="evenodd" clip-rule="evenodd" d="M153.755 187.251C152.056 187.251 150.437 187.622 148.961 188.291C150.347 186.102 151.161 183.45 151.161 180.589C151.161 173.084 145.571 167 138.676 167C131.781 167 126.191 173.084 126.191 180.589C126.191 183.313 126.93 185.846 128.197 187.972C126.937 187.507 125.588 187.251 124.184 187.251C117.289 187.251 111.699 193.335 111.699 200.84C111.699 208.346 117.289 214.43 124.184 214.43C125.741 214.43 127.231 214.117 128.606 213.55C128.605 213.553 134.416 211.845 138.235 204.278V208.834C138.235 208.834 136.277 223.196 122.471 224.768H120.267V227.006H157.868V224.768H155.665C141.858 223.196 139.9 208.834 139.9 208.834V204.584C140.611 206.29 144.545 214.627 153.384 214.42C153.508 214.423 153.631 214.43 153.755 214.43C160.651 214.43 166.24 208.346 166.24 200.84C166.24 193.335 160.651 187.251 153.755 187.251Z" fill="#1A1919"/>
<path d="M47.9355 52.6211H51.9639V58.3096H47.9355V66H40.8799V58.3096H26.3047L25.9873 53.8662L40.8066 30.4531H47.9355V52.6211ZM33.0186 52.6211H40.8799V40.0723L40.416 40.8779L33.0186 52.6211Z" fill="#1A1919"/>
<path d="M241.936 361.621H245.964V367.31H241.936V375H234.88V367.31H220.305L219.987 362.866L234.807 339.453H241.936V361.621ZM227.019 361.621H234.88V349.072L234.416 349.878L227.019 361.621Z" fill="#1A1919"/>
</svg>
