<svg width="280" height="394" viewBox="0 0 280 394" fill="none" xmlns="http://www.w3.org/2000/svg">
<rect x="0.5" y="0.5" width="279" height="393" rx="19.5" fill="white" stroke="#D2D2D2"/>
<path fill-rule="evenodd" clip-rule="evenodd" d="M153.755 187.251C152.056 187.251 150.437 187.622 148.961 188.291C150.347 186.102 151.161 183.45 151.161 180.589C151.161 173.084 145.571 167 138.676 167C131.781 167 126.191 173.084 126.191 180.589C126.191 183.313 126.93 185.846 128.197 187.972C126.937 187.507 125.588 187.251 124.184 187.251C117.289 187.251 111.699 193.335 111.699 200.84C111.699 208.346 117.289 214.43 124.184 214.43C125.741 214.43 127.231 214.117 128.606 213.55C128.605 213.553 134.416 211.845 138.235 204.278V208.834C138.235 208.834 136.277 223.196 122.471 224.768H120.267V227.006H157.868V224.768H155.665C141.858 223.196 139.9 208.834 139.9 208.834V204.584C140.611 206.29 144.545 214.627 153.384 214.42C153.508 214.423 153.631 214.43 153.755 214.43C160.651 214.43 166.24 208.346 166.24 200.84C166.24 193.335 160.651 187.251 153.755 187.251Z" fill="#1A1919"/>
<path d="M46.2021 30.0869V35.8975H45.5186C42.3285 35.9463 39.7568 36.7764 37.8037 38.3877C35.8669 39.999 34.7031 42.237 34.3125 45.1016C36.2005 43.181 38.585 42.2207 41.4658 42.2207C44.5583 42.2207 47.016 43.3275 48.8389 45.541C50.6618 47.7546 51.5732 50.668 51.5732 54.2812C51.5732 56.5924 51.0687 58.6839 50.0596 60.5557C49.0667 62.4274 47.6507 63.8841 45.8115 64.9258C43.9886 65.9674 41.9215 66.4883 39.6104 66.4883C35.8669 66.4883 32.8395 65.1862 30.5283 62.582C28.2334 59.9779 27.0859 56.5029 27.0859 52.1572V49.6182C27.0859 45.7607 27.8102 42.359 29.2588 39.4131C30.7236 36.4508 32.8151 34.1641 35.5332 32.5527C38.2676 30.9251 41.4333 30.1032 45.0303 30.0869H46.2021ZM39.3174 47.8848C38.1781 47.8848 37.1445 48.1859 36.2168 48.7881C35.2891 49.374 34.6055 50.1553 34.166 51.1318V53.2803C34.166 55.6403 34.6299 57.4876 35.5576 58.8223C36.4854 60.1406 37.7874 60.7998 39.4639 60.7998C40.9775 60.7998 42.1982 60.2057 43.126 59.0176C44.07 57.8131 44.542 56.2588 44.542 54.3545C44.542 52.4176 44.07 50.8551 43.126 49.667C42.182 48.4788 40.9124 47.8848 39.3174 47.8848Z" fill="#1A1919"/>
<path d="M236.202 339.087V344.897H235.519C232.328 344.946 229.757 345.776 227.804 347.388C225.867 348.999 224.703 351.237 224.313 354.102C226.201 352.181 228.585 351.221 231.466 351.221C234.558 351.221 237.016 352.327 238.839 354.541C240.662 356.755 241.573 359.668 241.573 363.281C241.573 365.592 241.069 367.684 240.06 369.556C239.067 371.427 237.651 372.884 235.812 373.926C233.989 374.967 231.922 375.488 229.61 375.488C225.867 375.488 222.84 374.186 220.528 371.582C218.233 368.978 217.086 365.503 217.086 361.157V358.618C217.086 354.761 217.81 351.359 219.259 348.413C220.724 345.451 222.815 343.164 225.533 341.553C228.268 339.925 231.433 339.103 235.03 339.087H236.202ZM229.317 356.885C228.178 356.885 227.145 357.186 226.217 357.788C225.289 358.374 224.605 359.155 224.166 360.132V362.28C224.166 364.64 224.63 366.488 225.558 367.822C226.485 369.141 227.787 369.8 229.464 369.8C230.978 369.8 232.198 369.206 233.126 368.018C234.07 366.813 234.542 365.259 234.542 363.354C234.542 361.418 234.07 359.855 233.126 358.667C232.182 357.479 230.912 356.885 229.317 356.885Z" fill="#1A1919"/>
</svg>
