<svg width="280" height="394" viewBox="0 0 280 394" fill="none" xmlns="http://www.w3.org/2000/svg">
<rect x="0.5" y="0.5" width="279" height="393" rx="19.5" fill="white" stroke="#D2D2D2"/>
<path fill-rule="evenodd" clip-rule="evenodd" d="M153.755 187.251C152.056 187.251 150.437 187.622 148.961 188.291C150.347 186.102 151.161 183.45 151.161 180.589C151.161 173.084 145.571 167 138.676 167C131.781 167 126.191 173.084 126.191 180.589C126.191 183.313 126.93 185.846 128.197 187.972C126.937 187.507 125.588 187.251 124.184 187.251C117.289 187.251 111.699 193.335 111.699 200.84C111.699 208.346 117.289 214.43 124.184 214.43C125.741 214.43 127.231 214.117 128.606 213.55C128.605 213.553 134.416 211.845 138.235 204.278V208.834C138.235 208.834 136.277 223.196 122.471 224.768H120.267V227.006H157.868V224.768H155.665C141.858 223.196 139.9 208.834 139.9 208.834V204.584C140.611 206.29 144.545 214.627 153.384 214.42C153.508 214.423 153.631 214.43 153.755 214.43C160.651 214.43 166.24 208.346 166.24 200.84C166.24 193.335 160.651 187.251 153.755 187.251Z" fill="#1A1919"/>
<path d="M43.5654 51.791C41.7262 53.5977 39.5778 54.501 37.1201 54.501C33.9788 54.501 31.4642 53.4268 29.5762 51.2783C27.6882 49.1136 26.7441 46.2002 26.7441 42.5381C26.7441 40.2106 27.2487 38.0784 28.2578 36.1416C29.2832 34.1885 30.7074 32.6748 32.5303 31.6006C34.3532 30.5101 36.404 29.9648 38.6826 29.9648C41.0264 29.9648 43.1097 30.5508 44.9326 31.7227C46.7555 32.8945 48.1715 34.5791 49.1807 36.7764C50.1898 38.9736 50.7025 41.4883 50.7187 44.3203V46.9326C50.7187 52.8571 49.2458 57.512 46.2998 60.8975C43.3538 64.2829 39.179 66.0895 33.7754 66.3174L32.042 66.3418V60.458L33.6045 60.4336C39.7406 60.1569 43.0609 57.276 43.5654 51.791ZM38.8535 49.1055C39.9928 49.1055 40.9694 48.8125 41.7832 48.2266C42.6133 47.6406 43.2399 46.9326 43.6631 46.1025V43.1973C43.6631 40.8047 43.2074 38.9492 42.2959 37.6309C41.3844 36.3125 40.1637 35.6533 38.6338 35.6533C37.2178 35.6533 36.054 36.3044 35.1426 37.6064C34.2311 38.8923 33.7754 40.5117 33.7754 42.4648C33.7754 44.4017 34.2148 45.9967 35.0938 47.25C35.9889 48.487 37.2422 49.1055 38.8535 49.1055Z" fill="#1A1919"/>
<path d="M239.565 360.791C237.726 362.598 235.578 363.501 233.12 363.501C229.979 363.501 227.464 362.427 225.576 360.278C223.688 358.114 222.744 355.2 222.744 351.538C222.744 349.211 223.249 347.078 224.258 345.142C225.283 343.188 226.707 341.675 228.53 340.601C230.353 339.51 232.404 338.965 234.683 338.965C237.026 338.965 239.11 339.551 240.933 340.723C242.756 341.895 244.172 343.579 245.181 345.776C246.19 347.974 246.702 350.488 246.719 353.32V355.933C246.719 361.857 245.246 366.512 242.3 369.897C239.354 373.283 235.179 375.09 229.775 375.317L228.042 375.342V369.458L229.604 369.434C235.741 369.157 239.061 366.276 239.565 360.791ZM234.854 358.105C235.993 358.105 236.969 357.812 237.783 357.227C238.613 356.641 239.24 355.933 239.663 355.103V352.197C239.663 349.805 239.207 347.949 238.296 346.631C237.384 345.312 236.164 344.653 234.634 344.653C233.218 344.653 232.054 345.304 231.143 346.606C230.231 347.892 229.775 349.512 229.775 351.465C229.775 353.402 230.215 354.997 231.094 356.25C231.989 357.487 233.242 358.105 234.854 358.105Z" fill="#1A1919"/>
</svg>
