<svg width="280" height="394" viewBox="0 0 280 394" fill="none" xmlns="http://www.w3.org/2000/svg">
<rect x="0.5" y="0.5" width="279" height="393" rx="19.5" fill="white" stroke="#D2D2D2"/>
<path fill-rule="evenodd" clip-rule="evenodd" d="M110 197L139.5 228L169 197L139.5 166L110 197Z" fill="#F24822"/>
<path d="M40.8447 62H33.7891V34.8027L25.3662 37.415V31.6777L40.0879 26.4043H40.8447V62ZM76.3428 47.3027C76.3428 52.2181 75.3255 55.9779 73.291 58.582C71.2565 61.1862 68.278 62.4883 64.3555 62.4883C60.4818 62.4883 57.5195 61.2106 55.4687 58.6553C53.418 56.0999 52.3682 52.4378 52.3193 47.6689V41.126C52.3193 36.1618 53.3447 32.3939 55.3955 29.8223C57.4626 27.2507 60.4329 25.9648 64.3066 25.9648C68.1803 25.9648 71.1426 27.2425 73.1934 29.7979C75.2441 32.3369 76.2939 35.9909 76.3428 40.7598V47.3027ZM69.2871 40.125C69.2871 37.179 68.8802 35.0387 68.0664 33.7041C67.2689 32.3532 66.0156 31.6777 64.3066 31.6777C62.6465 31.6777 61.4176 32.3206 60.6201 33.6064C59.8389 34.876 59.4238 36.8698 59.375 39.5879V48.2305C59.375 51.1276 59.7656 53.2842 60.5469 54.7002C61.3444 56.0999 62.6139 56.7998 64.3555 56.7998C66.0807 56.7998 67.3258 56.1243 68.0908 54.7734C68.8558 53.4225 69.2546 51.3555 69.2871 48.5723V40.125Z" fill="#F24822"/>
<path d="M214.845 371H207.789V343.803L199.366 346.415V340.678L214.088 335.404H214.845V371ZM250.343 356.303C250.343 361.218 249.326 364.978 247.291 367.582C245.257 370.186 242.278 371.488 238.355 371.488C234.482 371.488 231.52 370.211 229.469 367.655C227.418 365.1 226.368 361.438 226.319 356.669V350.126C226.319 345.162 227.345 341.394 229.396 338.822C231.463 336.251 234.433 334.965 238.307 334.965C242.18 334.965 245.143 336.243 247.193 338.798C249.244 341.337 250.294 344.991 250.343 349.76V356.303ZM243.287 349.125C243.287 346.179 242.88 344.039 242.066 342.704C241.269 341.353 240.016 340.678 238.307 340.678C236.646 340.678 235.418 341.321 234.62 342.606C233.839 343.876 233.424 345.87 233.375 348.588V357.23C233.375 360.128 233.766 362.284 234.547 363.7C235.344 365.1 236.614 365.8 238.355 365.8C240.081 365.8 241.326 365.124 242.091 363.773C242.856 362.423 243.255 360.355 243.287 357.572V349.125Z" fill="#F24822"/>
</svg>
