<svg width="280" height="394" viewBox="0 0 280 394" fill="none" xmlns="http://www.w3.org/2000/svg">
<rect x="0.5" y="0.5" width="279" height="393" rx="19.5" fill="white" stroke="#D2D2D2"/>
<path fill-rule="evenodd" clip-rule="evenodd" d="M110 197L139.5 228L169 197L139.5 166L110 197Z" fill="#F24822"/>
<path d="M53.4268 62H29.0615V57.166L40.5605 44.9102C42.1393 43.1849 43.3031 41.6794 44.0518 40.3936C44.8167 39.1077 45.1992 37.887 45.1992 36.7314C45.1992 35.1527 44.8005 33.9157 44.0029 33.0205C43.2054 32.109 42.0661 31.6533 40.585 31.6533C38.9899 31.6533 37.7285 32.2067 36.8008 33.3135C35.8893 34.404 35.4336 35.8444 35.4336 37.6348H28.3535C28.3535 35.4701 28.8662 33.4925 29.8916 31.7021C30.9333 29.9118 32.3981 28.512 34.2861 27.5029C36.1742 26.4775 38.3145 25.9648 40.707 25.9648C44.3691 25.9648 47.2093 26.8437 49.2275 28.6016C51.262 30.3594 52.2793 32.8415 52.2793 36.0479C52.2793 37.8057 51.8236 39.596 50.9121 41.4189C50.0007 43.2419 48.4382 45.3659 46.2246 47.791L38.1436 56.3115H53.4268V62Z" fill="#F24822"/>
<path d="M250.427 371H226.062V366.166L237.561 353.91C239.139 352.185 240.303 350.679 241.052 349.394C241.817 348.108 242.199 346.887 242.199 345.731C242.199 344.153 241.8 342.916 241.003 342.021C240.205 341.109 239.066 340.653 237.585 340.653C235.99 340.653 234.729 341.207 233.801 342.313C232.889 343.404 232.434 344.844 232.434 346.635H225.354C225.354 344.47 225.866 342.493 226.892 340.702C227.933 338.912 229.398 337.512 231.286 336.503C233.174 335.478 235.314 334.965 237.707 334.965C241.369 334.965 244.209 335.844 246.228 337.602C248.262 339.359 249.279 341.841 249.279 345.048C249.279 346.806 248.824 348.596 247.912 350.419C247.001 352.242 245.438 354.366 243.225 356.791L235.144 365.312H250.427V371Z" fill="#F24822"/>
</svg>
