<svg width="280" height="394" viewBox="0 0 280 394" fill="none" xmlns="http://www.w3.org/2000/svg">
<rect x="0.5" y="0.5" width="279" height="393" rx="19.5" fill="white" stroke="#D2D2D2"/>
<path fill-rule="evenodd" clip-rule="evenodd" d="M110 197L139.5 228L169 197L139.5 166L110 197Z" fill="#F24822"/>
<path d="M36.2393 41.1016H39.999C41.7894 41.1016 43.1159 40.654 43.9785 39.7588C44.8411 38.8636 45.2725 37.6755 45.2725 36.1943C45.2725 34.762 44.8411 33.6471 43.9785 32.8496C43.1322 32.0521 41.9603 31.6533 40.4629 31.6533C39.112 31.6533 37.9808 32.0277 37.0693 32.7764C36.1579 33.5088 35.7021 34.4691 35.7021 35.6572H28.6465C28.6465 33.8018 29.1429 32.1416 30.1357 30.6768C31.1449 29.1956 32.5446 28.04 34.335 27.21C36.1416 26.3799 38.1273 25.9648 40.292 25.9648C44.0518 25.9648 46.9977 26.8682 49.1299 28.6748C51.262 30.4652 52.3281 32.9391 52.3281 36.0967C52.3281 37.7243 51.8317 39.2217 50.8389 40.5889C49.846 41.9561 48.5439 43.0059 46.9326 43.7383C48.9346 44.4544 50.4238 45.5286 51.4004 46.9609C52.3932 48.3932 52.8896 50.0859 52.8896 52.0391C52.8896 55.1966 51.734 57.7275 49.4229 59.6318C47.1279 61.5361 44.0843 62.4883 40.292 62.4883C36.7438 62.4883 33.8385 61.5524 31.5762 59.6807C29.3301 57.8089 28.207 55.335 28.207 52.2588H35.2627C35.2627 53.5934 35.7591 54.6839 36.752 55.5303C37.7611 56.3766 38.998 56.7998 40.4629 56.7998C42.1393 56.7998 43.4495 56.3603 44.3936 55.4814C45.3538 54.5863 45.834 53.4062 45.834 51.9414C45.834 48.3932 43.8809 46.6191 39.9746 46.6191H36.2393V41.1016Z" fill="#F24822"/>
<path d="M234.239 350.102H237.999C239.789 350.102 241.116 349.654 241.979 348.759C242.841 347.864 243.272 346.675 243.272 345.194C243.272 343.762 242.841 342.647 241.979 341.85C241.132 341.052 239.96 340.653 238.463 340.653C237.112 340.653 235.981 341.028 235.069 341.776C234.158 342.509 233.702 343.469 233.702 344.657H226.646C226.646 342.802 227.143 341.142 228.136 339.677C229.145 338.196 230.545 337.04 232.335 336.21C234.142 335.38 236.127 334.965 238.292 334.965C242.052 334.965 244.998 335.868 247.13 337.675C249.262 339.465 250.328 341.939 250.328 345.097C250.328 346.724 249.832 348.222 248.839 349.589C247.846 350.956 246.544 352.006 244.933 352.738C246.935 353.454 248.424 354.529 249.4 355.961C250.393 357.393 250.89 359.086 250.89 361.039C250.89 364.197 249.734 366.728 247.423 368.632C245.128 370.536 242.084 371.488 238.292 371.488C234.744 371.488 231.839 370.552 229.576 368.681C227.33 366.809 226.207 364.335 226.207 361.259H233.263C233.263 362.593 233.759 363.684 234.752 364.53C235.761 365.377 236.998 365.8 238.463 365.8C240.139 365.8 241.45 365.36 242.394 364.481C243.354 363.586 243.834 362.406 243.834 360.941C243.834 357.393 241.881 355.619 237.975 355.619H234.239V350.102Z" fill="#F24822"/>
</svg>
