<svg width="280" height="394" viewBox="0 0 280 394" fill="none" xmlns="http://www.w3.org/2000/svg">
<rect x="0.5" y="0.5" width="279" height="393" rx="19.5" fill="white" stroke="#D2D2D2"/>
<path fill-rule="evenodd" clip-rule="evenodd" d="M110 197L139.5 228L169 197L139.5 166L110 197Z" fill="#F24822"/>
<path d="M50.9355 48.6211H54.9639V54.3096H50.9355V62H43.8799V54.3096H29.3047L28.9873 49.8662L43.8066 26.4531H50.9355V48.6211ZM36.0186 48.6211H43.8799V36.0723L43.416 36.8779L36.0186 48.6211Z" fill="#F24822"/>
<path d="M244.936 357.621H248.964V363.31H244.936V371H237.88V363.31H223.305L222.987 358.866L237.807 335.453H244.936V357.621ZM230.019 357.621H237.88V345.072L237.416 345.878L230.019 357.621Z" fill="#F24822"/>
</svg>
