<svg width="280" height="394" viewBox="0 0 280 394" fill="none" xmlns="http://www.w3.org/2000/svg">
<rect x="0.5" y="0.5" width="279" height="393" rx="19.5" fill="white" stroke="#D2D2D2"/>
<path d="M46.5654 47.791C44.7262 49.5977 42.5778 50.501 40.1201 50.501C36.9788 50.501 34.4642 49.4268 32.5762 47.2783C30.6882 45.1136 29.7441 42.2002 29.7441 38.5381C29.7441 36.2106 30.2487 34.0784 31.2578 32.1416C32.2832 30.1885 33.7074 28.6748 35.5303 27.6006C37.3532 26.5101 39.404 25.9648 41.6826 25.9648C44.0264 25.9648 46.1097 26.5508 47.9326 27.7227C49.7555 28.8945 51.1715 30.5791 52.1807 32.7764C53.1898 34.9736 53.7025 37.4883 53.7187 40.3203V42.9326C53.7187 48.8571 52.2458 53.512 49.2998 56.8975C46.3538 60.2829 42.179 62.0895 36.7754 62.3174L35.042 62.3418V56.458L36.6045 56.4336C42.7406 56.1569 46.0609 53.276 46.5654 47.791ZM41.8535 45.1055C42.9928 45.1055 43.9694 44.8125 44.7832 44.2266C45.6133 43.6406 46.2399 42.9326 46.6631 42.1025V39.1973C46.6631 36.8047 46.2074 34.9492 45.2959 33.6309C44.3844 32.3125 43.1637 31.6533 41.6338 31.6533C40.2178 31.6533 39.054 32.3044 38.1426 33.6064C37.2311 34.8923 36.7754 36.5117 36.7754 38.4648C36.7754 40.4017 37.2148 41.9967 38.0938 43.25C38.9889 44.487 40.2422 45.1055 41.8535 45.1055Z" fill="#F24822"/>
<path d="M242.565 356.791C240.726 358.598 238.578 359.501 236.12 359.501C232.979 359.501 230.464 358.427 228.576 356.278C226.688 354.114 225.744 351.2 225.744 347.538C225.744 345.211 226.249 343.078 227.258 341.142C228.283 339.188 229.707 337.675 231.53 336.601C233.353 335.51 235.404 334.965 237.683 334.965C240.026 334.965 242.11 335.551 243.933 336.723C245.756 337.895 247.172 339.579 248.181 341.776C249.19 343.974 249.702 346.488 249.719 349.32V351.933C249.719 357.857 248.246 362.512 245.3 365.897C242.354 369.283 238.179 371.09 232.775 371.317L231.042 371.342V365.458L232.604 365.434C238.741 365.157 242.061 362.276 242.565 356.791ZM237.854 354.105C238.993 354.105 239.969 353.812 240.783 353.227C241.613 352.641 242.24 351.933 242.663 351.103V348.197C242.663 345.805 242.207 343.949 241.296 342.631C240.384 341.312 239.164 340.653 237.634 340.653C236.218 340.653 235.054 341.304 234.143 342.606C233.231 343.892 232.775 345.512 232.775 347.465C232.775 349.402 233.215 350.997 234.094 352.25C234.989 353.487 236.242 354.105 237.854 354.105Z" fill="#F24822"/>
<path fill-rule="evenodd" clip-rule="evenodd" d="M110 197L139.5 228L169 197L139.5 166L110 197Z" fill="#F24822"/>
</svg>
