<svg width="280" height="394" viewBox="0 0 280 394" fill="none" xmlns="http://www.w3.org/2000/svg">
<rect x="0.5" y="0.5" width="279" height="393" rx="19.5" fill="white" stroke="#D2D2D2"/>
<path d="M45.54 26.4531H52.8643V51.0625C52.8643 53.3249 52.3597 55.3268 51.3506 57.0684C50.3577 58.7936 48.9499 60.1283 47.127 61.0723C45.304 62.0163 43.2451 62.4883 40.9502 62.4883C37.1904 62.4883 34.2607 61.5361 32.1611 59.6318C30.0615 57.7113 29.0117 55.0013 29.0117 51.502H36.3848C36.3848 53.2435 36.751 54.5293 37.4834 55.3594C38.2158 56.1895 39.3714 56.6045 40.9502 56.6045C42.3499 56.6045 43.4648 56.1243 44.2949 55.1641C45.125 54.2038 45.54 52.8366 45.54 51.0625V26.4531Z" fill="#F24822"/>
<path d="M241.54 335.453H248.864V360.062C248.864 362.325 248.36 364.327 247.351 366.068C246.358 367.794 244.95 369.128 243.127 370.072C241.304 371.016 239.245 371.488 236.95 371.488C233.19 371.488 230.261 370.536 228.161 368.632C226.062 366.711 225.012 364.001 225.012 360.502H232.385C232.385 362.243 232.751 363.529 233.483 364.359C234.216 365.189 235.371 365.604 236.95 365.604C238.35 365.604 239.465 365.124 240.295 364.164C241.125 363.204 241.54 361.837 241.54 360.062V335.453Z" fill="#F24822"/>
<path fill-rule="evenodd" clip-rule="evenodd" d="M110 197L139.5 228L169 197L139.5 166L110 197Z" fill="#F24822"/>
</svg>
