<svg width="280" height="394" viewBox="0 0 280 394" fill="none" xmlns="http://www.w3.org/2000/svg">
<rect x="0.5" y="0.5" width="279" height="393" rx="19.5" fill="white" stroke="#D2D2D2"/>
<path fill-rule="evenodd" clip-rule="evenodd" d="M110 197L139.5 228L169 197L139.5 166L110 197Z" fill="#F24822"/>
<path d="M57.0635 45.0322C57.0635 48.3525 56.5264 51.2415 55.4521 53.6992C54.3779 56.1406 52.8887 58.1019 50.9844 59.583L56.8926 64.2217L52.2295 68.3477L44.6611 62.2686C43.7985 62.415 42.9033 62.4883 41.9756 62.4883C39.0296 62.4883 36.401 61.7803 34.0898 60.3643C31.7786 58.9482 29.9883 56.93 28.7188 54.3096C27.4492 51.6728 26.8063 48.6455 26.79 45.2275V43.4697C26.79 39.9704 27.4167 36.8942 28.6699 34.2412C29.9395 31.5719 31.7217 29.5293 34.0166 28.1133C36.3278 26.681 38.9645 25.9648 41.9268 25.9648C44.889 25.9648 47.5176 26.681 49.8125 28.1133C52.1237 29.5293 53.9059 31.5719 55.1592 34.2412C56.4287 36.8942 57.0635 39.9622 57.0635 43.4453V45.0322ZM49.6416 43.4209C49.6416 39.6937 48.9743 36.8617 47.6396 34.9248C46.305 32.988 44.4007 32.0195 41.9268 32.0195C39.4691 32.0195 37.5729 32.9798 36.2383 34.9004C34.9036 36.8047 34.2282 39.6042 34.2119 43.2988V45.0322C34.2119 48.6618 34.8792 51.4775 36.2139 53.4795C37.5485 55.4814 39.4691 56.4824 41.9756 56.4824C44.4333 56.4824 46.3213 55.5221 47.6396 53.6016C48.958 51.6647 49.6253 48.849 49.6416 45.1543V43.4209Z" fill="#F24822"/>
<path d="M253.063 354.032C253.063 357.353 252.526 360.242 251.452 362.699C250.378 365.141 248.889 367.102 246.984 368.583L252.893 373.222L248.229 377.348L240.661 371.269C239.799 371.415 238.903 371.488 237.976 371.488C235.03 371.488 232.401 370.78 230.09 369.364C227.779 367.948 225.988 365.93 224.719 363.31C223.449 360.673 222.806 357.646 222.79 354.228V352.47C222.79 348.97 223.417 345.894 224.67 343.241C225.939 340.572 227.722 338.529 230.017 337.113C232.328 335.681 234.965 334.965 237.927 334.965C240.889 334.965 243.518 335.681 245.812 337.113C248.124 338.529 249.906 340.572 251.159 343.241C252.429 345.894 253.063 348.962 253.063 352.445V354.032ZM245.642 352.421C245.642 348.694 244.974 345.862 243.64 343.925C242.305 341.988 240.401 341.02 237.927 341.02C235.469 341.02 233.573 341.98 232.238 343.9C230.904 345.805 230.228 348.604 230.212 352.299V354.032C230.212 357.662 230.879 360.478 232.214 362.479C233.549 364.481 235.469 365.482 237.976 365.482C240.433 365.482 242.321 364.522 243.64 362.602C244.958 360.665 245.625 357.849 245.642 354.154V352.421Z" fill="#F24822"/>
</svg>
