<svg width="283" height="396" viewBox="0 0 283 396" fill="none" xmlns="http://www.w3.org/2000/svg">
<rect x="2.62059" y="0.502687" width="279" height="393" rx="19.5" transform="rotate(0.308765 2.62059 0.502687)" fill="white" stroke="#D2D2D2"/>
<path fill-rule="evenodd" clip-rule="evenodd" d="M153.757 167.221C143.067 167.328 140.876 179.486 140.876 179.486C140.876 179.486 138.475 167.303 127.786 167.081C117.097 166.859 110.468 176.198 114.033 186.085C117.598 195.971 121.191 198.211 126.833 205.395C132.475 212.58 140.672 225 140.615 227.919C140.59 225 148.578 212.667 154.297 205.543C160.017 198.42 163.633 196.219 167.305 186.372C170.976 176.524 164.448 167.114 153.757 167.221Z" fill="#F24822"/>
<path d="M38.8447 65H31.7891V37.8027L23.3662 40.415V34.6777L38.0879 29.4043H38.8447V65ZM74.3428 50.3027C74.3428 55.2181 73.3255 58.9779 71.291 61.582C69.2565 64.1862 66.278 65.4883 62.3555 65.4883C58.4818 65.4883 55.5195 64.2106 53.4687 61.6553C51.418 59.0999 50.3682 55.4378 50.3193 50.6689V44.126C50.3193 39.1618 51.3447 35.3939 53.3955 32.8223C55.4626 30.2507 58.4329 28.9648 62.3066 28.9648C66.1803 28.9648 69.1426 30.2425 71.1934 32.7979C73.2441 35.3369 74.2939 38.9909 74.3428 43.7598V50.3027ZM67.2871 43.125C67.2871 40.179 66.8802 38.0387 66.0664 36.7041C65.2689 35.3532 64.0156 34.6777 62.3066 34.6777C60.6465 34.6777 59.4176 35.3206 58.6201 36.6064C57.8389 37.876 57.4238 39.8698 57.375 42.5879V51.2305C57.375 54.1276 57.7656 56.2842 58.5469 57.7002C59.3444 59.0999 60.6139 59.7998 62.3555 59.7998C64.0807 59.7998 65.3258 59.1243 66.0908 57.7734C66.8558 56.4225 67.2546 54.3555 67.2871 51.5723V43.125Z" fill="#F24822"/>
<path d="M212.845 374H205.789V346.803L197.366 349.415V343.678L212.088 338.404H212.845V374ZM248.343 359.303C248.343 364.218 247.326 367.978 245.291 370.582C243.257 373.186 240.278 374.488 236.355 374.488C232.482 374.488 229.52 373.211 227.469 370.655C225.418 368.1 224.368 364.438 224.319 359.669V353.126C224.319 348.162 225.345 344.394 227.396 341.822C229.463 339.251 232.433 337.965 236.307 337.965C240.18 337.965 243.143 339.243 245.193 341.798C247.244 344.337 248.294 347.991 248.343 352.76V359.303ZM241.287 352.125C241.287 349.179 240.88 347.039 240.066 345.704C239.269 344.353 238.016 343.678 236.307 343.678C234.646 343.678 233.418 344.321 232.62 345.606C231.839 346.876 231.424 348.87 231.375 351.588V360.23C231.375 363.128 231.766 365.284 232.547 366.7C233.344 368.1 234.614 368.8 236.355 368.8C238.081 368.8 239.326 368.124 240.091 366.773C240.856 365.423 241.255 363.355 241.287 360.572V352.125Z" fill="#F24822"/>
</svg>
