<svg width="283" height="396" viewBox="0 0 283 396" fill="none" xmlns="http://www.w3.org/2000/svg">
<rect x="2.62053" y="0.502687" width="279" height="393" rx="19.5" transform="rotate(0.308765 2.62053 0.502687)" fill="white" stroke="#D2D2D2"/>
<path fill-rule="evenodd" clip-rule="evenodd" d="M153.757 167.221C143.067 167.328 140.876 179.486 140.876 179.486C140.876 179.486 138.475 167.303 127.786 167.081C117.097 166.859 110.468 176.198 114.033 186.085C117.598 195.971 121.191 198.211 126.833 205.395C132.474 212.58 140.672 225 140.615 227.919C140.59 225 148.578 212.667 154.297 205.543C160.016 198.42 163.633 196.219 167.304 186.372C170.975 176.524 164.448 167.114 153.757 167.221Z" fill="#F24822"/>
<path d="M31.2393 44.1016H34.999C36.7894 44.1016 38.1159 43.654 38.9785 42.7588C39.8411 41.8636 40.2725 40.6755 40.2725 39.1943C40.2725 37.762 39.8411 36.6471 38.9785 35.8496C38.1322 35.0521 36.9603 34.6533 35.4629 34.6533C34.112 34.6533 32.9808 35.0277 32.0693 35.7764C31.1579 36.5088 30.7021 37.4691 30.7021 38.6572H23.6465C23.6465 36.8018 24.1429 35.1416 25.1357 33.6768C26.1449 32.1956 27.5446 31.04 29.335 30.21C31.1416 29.3799 33.1273 28.9648 35.292 28.9648C39.0518 28.9648 41.9977 29.8682 44.1299 31.6748C46.262 33.4652 47.3281 35.9391 47.3281 39.0967C47.3281 40.7243 46.8317 42.2217 45.8389 43.5889C44.846 44.9561 43.5439 46.0059 41.9326 46.7383C43.9346 47.4544 45.4238 48.5286 46.4004 49.9609C47.3932 51.3932 47.8896 53.0859 47.8896 55.0391C47.8896 58.1966 46.734 60.7275 44.4229 62.6318C42.1279 64.5361 39.0843 65.4883 35.292 65.4883C31.7438 65.4883 28.8385 64.5524 26.5762 62.6807C24.3301 60.8089 23.207 58.335 23.207 55.2588H30.2627C30.2627 56.5934 30.7591 57.6839 31.752 58.5303C32.7611 59.3766 33.998 59.7998 35.4629 59.7998C37.1393 59.7998 38.4495 59.3603 39.3936 58.4814C40.3538 57.5863 40.834 56.4062 40.834 54.9414C40.834 51.3932 38.8809 49.6191 34.9746 49.6191H31.2393V44.1016Z" fill="#F24822"/>
<path d="M232.239 353.102H235.999C237.789 353.102 239.116 352.654 239.979 351.759C240.841 350.864 241.272 349.675 241.272 348.194C241.272 346.762 240.841 345.647 239.979 344.85C239.132 344.052 237.96 343.653 236.463 343.653C235.112 343.653 233.981 344.028 233.069 344.776C232.158 345.509 231.702 346.469 231.702 347.657H224.646C224.646 345.802 225.143 344.142 226.136 342.677C227.145 341.196 228.545 340.04 230.335 339.21C232.142 338.38 234.127 337.965 236.292 337.965C240.052 337.965 242.998 338.868 245.13 340.675C247.262 342.465 248.328 344.939 248.328 348.097C248.328 349.724 247.832 351.222 246.839 352.589C245.846 353.956 244.544 355.006 242.933 355.738C244.935 356.454 246.424 357.529 247.4 358.961C248.393 360.393 248.89 362.086 248.89 364.039C248.89 367.197 247.734 369.728 245.423 371.632C243.128 373.536 240.084 374.488 236.292 374.488C232.744 374.488 229.839 373.552 227.576 371.681C225.33 369.809 224.207 367.335 224.207 364.259H231.263C231.263 365.593 231.759 366.684 232.752 367.53C233.761 368.377 234.998 368.8 236.463 368.8C238.139 368.8 239.45 368.36 240.394 367.481C241.354 366.586 241.834 365.406 241.834 363.941C241.834 360.393 239.881 358.619 235.975 358.619H232.239V353.102Z" fill="#F24822"/>
</svg>
