<svg width="283" height="396" viewBox="0 0 283 396" fill="none" xmlns="http://www.w3.org/2000/svg">
<rect x="2.62059" y="0.502687" width="279" height="393" rx="19.5" transform="rotate(0.308765 2.62059 0.502687)" fill="white" stroke="#D2D2D2"/>
<path fill-rule="evenodd" clip-rule="evenodd" d="M153.757 167.221C143.067 167.328 140.876 179.486 140.876 179.486C140.876 179.486 138.475 167.303 127.786 167.081C117.097 166.859 110.468 176.198 114.033 186.085C117.598 195.971 121.191 198.211 126.833 205.395C132.475 212.58 140.672 225 140.615 227.919C140.59 225 148.578 212.667 154.297 205.543C160.016 198.42 163.633 196.219 167.304 186.372C170.976 176.524 164.448 167.114 153.757 167.221Z" fill="#F24822"/>
<path d="M48.9355 51.6211H52.9639V57.3096H48.9355V65H41.8799V57.3096H27.3047L26.9873 52.8662L41.8066 29.4531H48.9355V51.6211ZM34.0186 51.6211H41.8799V39.0723L41.416 39.8779L34.0186 51.6211Z" fill="#F24822"/>
<path d="M242.936 360.621H246.964V366.31H242.936V374H235.88V366.31H221.305L220.987 361.866L235.807 338.453H242.936V360.621ZM228.019 360.621H235.88V348.072L235.416 348.878L228.019 360.621Z" fill="#F24822"/>
</svg>
