<svg width="283" height="396" viewBox="0 0 283 396" fill="none" xmlns="http://www.w3.org/2000/svg">
<rect x="2.62059" y="0.502687" width="279" height="393" rx="19.5" transform="rotate(0.308765 2.62059 0.502687)" fill="white" stroke="#D2D2D2"/>
<path fill-rule="evenodd" clip-rule="evenodd" d="M153.757 167.221C143.067 167.328 140.876 179.486 140.876 179.486C140.876 179.486 138.475 167.303 127.786 167.081C117.097 166.859 110.468 176.198 114.033 186.085C117.598 195.971 121.191 198.211 126.833 205.395C132.475 212.58 140.672 225 140.615 227.919C140.59 225 148.578 212.667 154.297 205.543C160.017 198.42 163.633 196.219 167.305 186.372C170.976 176.524 164.448 167.114 153.757 167.221Z" fill="#F24822"/>
<path d="M44.5654 50.791C42.7262 52.5977 40.5778 53.501 38.1201 53.501C34.9788 53.501 32.4642 52.4268 30.5762 50.2783C28.6882 48.1136 27.7441 45.2002 27.7441 41.5381C27.7441 39.2106 28.2487 37.0784 29.2578 35.1416C30.2832 33.1885 31.7074 31.6748 33.5303 30.6006C35.3532 29.5101 37.404 28.9648 39.6826 28.9648C42.0264 28.9648 44.1097 29.5508 45.9326 30.7227C47.7555 31.8945 49.1715 33.5791 50.1807 35.7764C51.1898 37.9736 51.7025 40.4883 51.7187 43.3203V45.9326C51.7187 51.8571 50.2458 56.512 47.2998 59.8975C44.3538 63.2829 40.179 65.0895 34.7754 65.3174L33.042 65.3418V59.458L34.6045 59.4336C40.7406 59.1569 44.0609 56.276 44.5654 50.791ZM39.8535 48.1055C40.9928 48.1055 41.9694 47.8125 42.7832 47.2266C43.6133 46.6406 44.2399 45.9326 44.6631 45.1025V42.1973C44.6631 39.8047 44.2074 37.9492 43.2959 36.6309C42.3844 35.3125 41.1637 34.6533 39.6338 34.6533C38.2178 34.6533 37.054 35.3044 36.1426 36.6064C35.2311 37.8923 34.7754 39.5117 34.7754 41.4648C34.7754 43.4017 35.2148 44.9967 36.0938 46.25C36.9889 47.487 38.2422 48.1055 39.8535 48.1055Z" fill="#F24822"/>
<path d="M240.565 359.791C238.726 361.598 236.578 362.501 234.12 362.501C230.979 362.501 228.464 361.427 226.576 359.278C224.688 357.114 223.744 354.2 223.744 350.538C223.744 348.211 224.249 346.078 225.258 344.142C226.283 342.188 227.707 340.675 229.53 339.601C231.353 338.51 233.404 337.965 235.683 337.965C238.026 337.965 240.11 338.551 241.933 339.723C243.756 340.895 245.172 342.579 246.181 344.776C247.19 346.974 247.702 349.488 247.719 352.32V354.933C247.719 360.857 246.246 365.512 243.3 368.897C240.354 372.283 236.179 374.09 230.775 374.317L229.042 374.342V368.458L230.604 368.434C236.741 368.157 240.061 365.276 240.565 359.791ZM235.854 357.105C236.993 357.105 237.969 356.812 238.783 356.227C239.613 355.641 240.24 354.933 240.663 354.103V351.197C240.663 348.805 240.207 346.949 239.296 345.631C238.384 344.312 237.164 343.653 235.634 343.653C234.218 343.653 233.054 344.304 232.143 345.606C231.231 346.892 230.775 348.512 230.775 350.465C230.775 352.402 231.215 353.997 232.094 355.25C232.989 356.487 234.242 357.105 235.854 357.105Z" fill="#F24822"/>
</svg>
