<svg width="283" height="396" viewBox="0 0 283 396" fill="none" xmlns="http://www.w3.org/2000/svg">
<rect x="2.62059" y="0.502687" width="279" height="393" rx="19.5" transform="rotate(0.308765 2.62059 0.502687)" fill="white" stroke="#D2D2D2"/>
<path fill-rule="evenodd" clip-rule="evenodd" d="M153.757 167.221C143.067 167.328 140.876 179.486 140.876 179.486C140.876 179.486 138.475 167.303 127.786 167.081C117.097 166.859 110.468 176.198 114.033 186.085C117.598 195.971 121.191 198.211 126.833 205.395C132.475 212.58 140.672 225 140.615 227.919C140.59 225 148.578 212.667 154.297 205.543C160.017 198.42 163.633 196.219 167.305 186.372C170.976 176.524 164.448 167.114 153.757 167.221Z" fill="#F24822"/>
<path d="M43.54 29.4531H50.8643V54.0625C50.8643 56.3249 50.3597 58.3268 49.3506 60.0684C48.3577 61.7936 46.9499 63.1283 45.127 64.0723C43.304 65.0163 41.2451 65.4883 38.9502 65.4883C35.1904 65.4883 32.2607 64.5361 30.1611 62.6318C28.0615 60.7113 27.0117 58.0013 27.0117 54.502H34.3848C34.3848 56.2435 34.751 57.5293 35.4834 58.3594C36.2158 59.1895 37.3714 59.6045 38.9502 59.6045C40.3499 59.6045 41.4648 59.1243 42.2949 58.1641C43.125 57.2038 43.54 55.8366 43.54 54.0625V29.4531Z" fill="#F24822"/>
<path d="M239.54 338.453H246.864V363.062C246.864 365.325 246.36 367.327 245.351 369.068C244.358 370.794 242.95 372.128 241.127 373.072C239.304 374.016 237.245 374.488 234.95 374.488C231.19 374.488 228.261 373.536 226.161 371.632C224.062 369.711 223.012 367.001 223.012 363.502H230.385C230.385 365.243 230.751 366.529 231.483 367.359C232.216 368.189 233.371 368.604 234.95 368.604C236.35 368.604 237.465 368.124 238.295 367.164C239.125 366.204 239.54 364.837 239.54 363.062V338.453Z" fill="#F24822"/>
</svg>
