<svg width="283" height="396" viewBox="0 0 283 396" fill="none" xmlns="http://www.w3.org/2000/svg">
<rect x="2.62035" y="0.502687" width="279" height="393" rx="19.5" transform="rotate(0.308765 2.62035 0.502687)" fill="white" stroke="#D2D2D2"/>
<path fill-rule="evenodd" clip-rule="evenodd" d="M153.757 167.221C143.066 167.328 140.876 179.486 140.876 179.486C140.876 179.486 138.474 167.303 127.786 167.081C117.097 166.859 110.468 176.198 114.033 186.085C117.598 195.971 121.191 198.211 126.833 205.395C132.474 212.58 140.672 225 140.615 227.919C140.589 225 148.578 212.667 154.297 205.543C160.016 198.42 163.633 196.219 167.304 186.372C170.975 176.524 164.448 167.114 153.757 167.221Z" fill="#F24822"/>
<path d="M38.4375 50.7422L34.6289 54.8437V65H27.3047V29.4531H34.6289V45.5664L37.8516 41.1475L46.9092 29.4531H55.918L43.2959 45.249L56.2842 65H47.5684L38.4375 50.7422Z" fill="#F24822"/>
<path d="M232.438 359.742L228.629 363.844V374H221.305V338.453H228.629V354.566L231.852 350.147L240.909 338.453H249.918L237.296 354.249L250.284 374H241.568L232.438 359.742Z" fill="#F24822"/>
</svg>
