<svg width="280" height="394" viewBox="0 0 280 394" fill="none" xmlns="http://www.w3.org/2000/svg">
<rect x="0.5" y="0.5" width="279" height="393" rx="19.5" fill="white" stroke="#D2D2D2"/>
<path fill-rule="evenodd" clip-rule="evenodd" d="M152.243 215.077C162.532 215.21 168.862 207.639 165.38 199.67C161.899 191.701 158.428 189.908 152.963 184.13C147.495 178.352 139.544 168.357 139.582 166C139.622 168.357 131.999 178.352 126.531 184.13C121.066 189.908 117.598 191.701 114.114 199.67C110.632 207.639 116.964 215.21 127.25 215.077C134.313 214.986 137.491 210.326 138.787 207.413L138.787 211.226C138.787 211.226 136.533 224.979 120.62 226.484L118.084 226.484L118.084 228.627L161.413 228.627L161.413 226.484L158.873 226.484C142.964 224.979 140.707 211.226 140.707 211.226L140.707 207.914C142.234 210.83 145.573 214.991 152.243 215.077Z" fill="#1A1919"/>
<path d="M38.8447 65H31.7891V37.8027L23.3662 40.415V34.6777L38.0879 29.4043H38.8447V65ZM74.3428 50.3027C74.3428 55.2181 73.3255 58.9779 71.291 61.582C69.2565 64.1862 66.278 65.4883 62.3555 65.4883C58.4818 65.4883 55.5195 64.2106 53.4687 61.6553C51.418 59.0999 50.3682 55.4378 50.3193 50.6689V44.126C50.3193 39.1618 51.3447 35.3939 53.3955 32.8223C55.4626 30.2507 58.4329 28.9648 62.3066 28.9648C66.1803 28.9648 69.1426 30.2425 71.1934 32.7979C73.2441 35.3369 74.2939 38.9909 74.3428 43.7598V50.3027ZM67.2871 43.125C67.2871 40.179 66.8802 38.0387 66.0664 36.7041C65.2689 35.3532 64.0156 34.6777 62.3066 34.6777C60.6465 34.6777 59.4176 35.3206 58.6201 36.6064C57.8389 37.876 57.4238 39.8698 57.375 42.5879V51.2305C57.375 54.1276 57.7656 56.2842 58.5469 57.7002C59.3444 59.0999 60.6139 59.7998 62.3555 59.7998C64.0807 59.7998 65.3258 59.1243 66.0908 57.7734C66.8558 56.4225 67.2546 54.3555 67.2871 51.5723V43.125Z" fill="#1A1919"/>
<path d="M212.845 374H205.789V346.803L197.366 349.415V343.678L212.088 338.404H212.845V374ZM248.343 359.303C248.343 364.218 247.326 367.978 245.291 370.582C243.257 373.186 240.278 374.488 236.355 374.488C232.482 374.488 229.52 373.211 227.469 370.655C225.418 368.1 224.368 364.438 224.319 359.669V353.126C224.319 348.162 225.345 344.394 227.396 341.822C229.463 339.251 232.433 337.965 236.307 337.965C240.18 337.965 243.143 339.243 245.193 341.798C247.244 344.337 248.294 347.991 248.343 352.76V359.303ZM241.287 352.125C241.287 349.179 240.88 347.039 240.066 345.704C239.269 344.353 238.016 343.678 236.307 343.678C234.646 343.678 233.418 344.321 232.62 345.606C231.839 346.876 231.424 348.87 231.375 351.588V360.23C231.375 363.128 231.766 365.284 232.547 366.7C233.344 368.1 234.614 368.8 236.355 368.8C238.081 368.8 239.326 368.124 240.091 366.773C240.856 365.423 241.255 363.355 241.287 360.572V352.125Z" fill="#1A1919"/>
</svg>
