<svg width="280" height="394" viewBox="0 0 280 394" fill="none" xmlns="http://www.w3.org/2000/svg">
<rect x="0.5" y="0.5" width="279" height="393" rx="19.5" fill="white" stroke="#D2D2D2"/>
<path fill-rule="evenodd" clip-rule="evenodd" d="M152.244 215.077C162.532 215.21 168.862 207.639 165.38 199.67C161.899 191.701 158.428 189.908 152.963 184.13C147.495 178.352 139.544 168.357 139.582 166C139.622 168.357 131.999 178.352 126.531 184.13C121.066 189.908 117.598 191.701 114.114 199.67C110.632 207.639 116.965 215.21 127.251 215.077C134.313 214.986 137.491 210.326 138.787 207.413L138.787 211.226C138.787 211.226 136.533 224.979 120.62 226.484L118.084 226.484L118.084 228.627L161.413 228.627L161.413 226.484L158.874 226.484C142.964 224.979 140.707 211.226 140.707 211.226L140.707 207.914C142.234 210.83 145.573 214.991 152.244 215.077Z" fill="#1A1919"/>
<path d="M54.4268 65H30.0615V60.166L41.5605 47.9102C43.1393 46.1849 44.3031 44.6794 45.0518 43.3936C45.8167 42.1077 46.1992 40.887 46.1992 39.7314C46.1992 38.1527 45.8005 36.9157 45.0029 36.0205C44.2054 35.109 43.0661 34.6533 41.585 34.6533C39.9899 34.6533 38.7285 35.2067 37.8008 36.3135C36.8893 37.404 36.4336 38.8444 36.4336 40.6348H29.3535C29.3535 38.4701 29.8662 36.4925 30.8916 34.7021C31.9333 32.9118 33.3981 31.512 35.2861 30.5029C37.1742 29.4775 39.3145 28.9648 41.707 28.9648C45.3691 28.9648 48.2093 29.8437 50.2275 31.6016C52.262 33.3594 53.2793 35.8415 53.2793 39.0479C53.2793 40.8057 52.8236 42.596 51.9121 44.4189C51.0007 46.2419 49.4382 48.3659 47.2246 50.791L39.1436 59.3115H54.4268V65Z" fill="#1A1919"/>
<path d="M251.427 374H227.062V369.166L238.561 356.91C240.139 355.185 241.303 353.679 242.052 352.394C242.817 351.108 243.199 349.887 243.199 348.731C243.199 347.153 242.8 345.916 242.003 345.021C241.205 344.109 240.066 343.653 238.585 343.653C236.99 343.653 235.729 344.207 234.801 345.313C233.889 346.404 233.434 347.844 233.434 349.635H226.354C226.354 347.47 226.866 345.493 227.892 343.702C228.933 341.912 230.398 340.512 232.286 339.503C234.174 338.478 236.314 337.965 238.707 337.965C242.369 337.965 245.209 338.844 247.228 340.602C249.262 342.359 250.279 344.841 250.279 348.048C250.279 349.806 249.824 351.596 248.912 353.419C248.001 355.242 246.438 357.366 244.225 359.791L236.144 368.312H251.427V374Z" fill="#1A1919"/>
</svg>
