<svg width="280" height="394" viewBox="0 0 280 394" fill="none" xmlns="http://www.w3.org/2000/svg">
<rect x="0.5" y="0.5" width="279" height="393" rx="19.5" fill="white" stroke="#D2D2D2"/>
<path fill-rule="evenodd" clip-rule="evenodd" d="M152.244 215.077C162.532 215.21 168.862 207.639 165.38 199.67C161.899 191.701 158.428 189.908 152.963 184.13C147.495 178.352 139.544 168.357 139.582 166C139.622 168.357 131.999 178.352 126.531 184.13C121.066 189.908 117.598 191.701 114.114 199.67C110.632 207.639 116.965 215.21 127.251 215.077C134.313 214.986 137.491 210.326 138.787 207.413L138.787 211.226C138.787 211.226 136.533 224.979 120.621 226.484L118.084 226.484L118.084 228.627L161.413 228.627L161.413 226.484L158.874 226.484C142.964 224.979 140.707 211.226 140.707 211.226L140.707 207.914C142.234 210.83 145.573 214.991 152.244 215.077Z" fill="#1A1919"/>
<path d="M48.9355 51.6211H52.9639V57.3096H48.9355V65H41.8799V57.3096H27.3047L26.9873 52.8662L41.8066 29.4531H48.9355V51.6211ZM34.0186 51.6211H41.8799V39.0723L41.416 39.8779L34.0186 51.6211Z" fill="#1A1919"/>
<path d="M242.936 360.621H246.964V366.31H242.936V374H235.88V366.31H221.305L220.987 361.866L235.807 338.453H242.936V360.621ZM228.019 360.621H235.88V348.072L235.416 348.878L228.019 360.621Z" fill="#1A1919"/>
</svg>
