<svg width="280" height="394" viewBox="0 0 280 394" fill="none" xmlns="http://www.w3.org/2000/svg">
<rect x="0.5" y="0.5" width="279" height="393" rx="19.5" fill="white" stroke="#D2D2D2"/>
<path fill-rule="evenodd" clip-rule="evenodd" d="M152.244 215.077C162.532 215.21 168.862 207.639 165.38 199.67C161.899 191.701 158.428 189.908 152.963 184.13C147.495 178.352 139.544 168.357 139.582 166C139.622 168.357 131.999 178.352 126.531 184.13C121.066 189.908 117.598 191.701 114.114 199.67C110.632 207.639 116.965 215.21 127.251 215.077C134.313 214.986 137.491 210.326 138.787 207.413L138.787 211.226C138.787 211.226 136.533 224.979 120.621 226.484L118.084 226.484L118.084 228.627L161.413 228.627L161.413 226.484L158.874 226.484C142.964 224.979 140.707 211.226 140.707 211.226L140.707 207.914C142.234 210.83 145.573 214.991 152.244 215.077Z" fill="#1A1919"/>
<path d="M29.1113 47.5195L31.1621 29.4531H51.084V35.3369H36.9482L36.0693 42.9785C37.7458 42.0833 39.528 41.6357 41.416 41.6357C44.8014 41.6357 47.4544 42.6855 49.375 44.7852C51.2956 46.8848 52.2559 49.8226 52.2559 53.5986C52.2559 55.8936 51.7676 57.9525 50.791 59.7754C49.8307 61.582 48.4473 62.9899 46.6406 63.999C44.834 64.9919 42.7018 65.4883 40.2441 65.4883C38.0957 65.4883 36.1019 65.057 34.2627 64.1943C32.4235 63.3154 30.9668 62.0866 29.8926 60.5078C28.8346 58.929 28.2731 57.1305 28.208 55.1123H35.1904C35.3369 56.5934 35.8496 57.749 36.7285 58.5791C37.6237 59.3929 38.7874 59.7998 40.2197 59.7998C41.8148 59.7998 43.0436 59.2301 43.9063 58.0908C44.7689 56.9352 45.2002 55.3076 45.2002 53.208C45.2002 51.1898 44.7038 49.6436 43.7109 48.5693C42.7181 47.4951 41.3102 46.958 39.4873 46.958C37.8109 46.958 36.4518 47.3975 35.4102 48.2764L34.7266 48.9111L29.1113 47.5195Z" fill="#1A1919"/>
<path d="M225.111 356.52L227.162 338.453H247.084V344.337H232.948L232.069 351.979C233.746 351.083 235.528 350.636 237.416 350.636C240.801 350.636 243.454 351.686 245.375 353.785C247.296 355.885 248.256 358.823 248.256 362.599C248.256 364.894 247.768 366.952 246.791 368.775C245.831 370.582 244.447 371.99 242.641 372.999C240.834 373.992 238.702 374.488 236.244 374.488C234.096 374.488 232.102 374.057 230.263 373.194C228.424 372.315 226.967 371.087 225.893 369.508C224.835 367.929 224.273 366.131 224.208 364.112H231.19C231.337 365.593 231.85 366.749 232.729 367.579C233.624 368.393 234.787 368.8 236.22 368.8C237.815 368.8 239.044 368.23 239.906 367.091C240.769 365.935 241.2 364.308 241.2 362.208C241.2 360.19 240.704 358.644 239.711 357.569C238.718 356.495 237.31 355.958 235.487 355.958C233.811 355.958 232.452 356.397 231.41 357.276L230.727 357.911L225.111 356.52Z" fill="#1A1919"/>
</svg>
