<svg width="280" height="394" viewBox="0 0 280 394" fill="none" xmlns="http://www.w3.org/2000/svg">
<rect x="0.5" y="0.5" width="279" height="393" rx="19.5" fill="white" stroke="#D2D2D2"/>
<path fill-rule="evenodd" clip-rule="evenodd" d="M152.244 215.077C162.532 215.21 168.862 207.639 165.38 199.67C161.899 191.701 158.428 189.908 152.963 184.13C147.495 178.352 139.544 168.357 139.582 166C139.622 168.357 131.999 178.352 126.531 184.13C121.066 189.908 117.598 191.701 114.114 199.67C110.632 207.639 116.965 215.21 127.251 215.077C134.313 214.986 137.491 210.326 138.787 207.413L138.787 211.226C138.787 211.226 136.533 224.979 120.62 226.484L118.084 226.484L118.084 228.627L161.413 228.627L161.413 226.484L158.874 226.484C142.964 224.979 140.707 211.226 140.707 211.226L140.707 207.914C142.234 210.83 145.573 214.991 152.244 215.077Z" fill="#1A1919"/>
<path d="M48.4209 53.6758H35.5791L33.1377 61H25.3496L38.582 25.4531H45.3691L58.6748 61H50.8867L48.4209 53.6758ZM37.5566 47.7432H46.4434L41.9756 34.4375L37.5566 47.7432Z" fill="#1A1919"/>
<path d="M243.421 366.676H230.579L228.138 374H220.35L233.582 338.453H240.369L253.675 374H245.887L243.421 366.676ZM232.557 360.743H241.443L236.976 347.438L232.557 360.743Z" fill="#1A1919"/>
</svg>
