<svg width="682" height="756" viewBox="0 0 682 756" fill="none" xmlns="http://www.w3.org/2000/svg">
<rect width="682" height="756" fill="#000932"/>
<g clip-path="url(#clip0)">
<rect width="1468" height="1651" transform="translate(-384 -91)" fill="#111A41"/>
<path d="M0.5 4.99998C0.5 3.06699 2.067 1.5 4 1.5H677C678.933 1.5 680.5 3.06701 680.5 5V753C680.5 754.933 678.933 756.5 677 756.5H4.00002C2.06702 756.5 0.5 754.933 0.5 753V4.99998Z" fill="#222C55" stroke="#2C3763"/>
<path d="M24.5 690C24.5 688.067 26.067 686.5 28 686.5H139C140.933 686.5 142.5 688.067 142.5 690V733C142.5 734.933 140.933 736.5 139 736.5H28C26.067 736.5 24.5 734.933 24.5 733V690Z" fill="#2C3763" stroke="#3F4B79"/>
<path fill-rule="evenodd" clip-rule="evenodd" d="M153 690C153 687.791 154.791 686 157 686L268 686C270.209 686 272 687.791 272 690V733C272 735.209 270.209 737 268 737H157C154.791 737 153 735.209 153 733V690Z" fill="#5E5CE6"/>
<path d="M281.5 690C281.5 688.067 283.067 686.5 285 686.5H396C397.933 686.5 399.5 688.067 399.5 690V733C399.5 734.933 397.933 736.5 396 736.5H285C283.067 736.5 281.5 734.933 281.5 733V690Z" fill="#2C3763" stroke="#3F4B79"/>
<path d="M410.5 690C410.5 688.067 412.067 686.5 414 686.5H525C526.933 686.5 528.5 688.067 528.5 690V733C528.5 734.933 526.933 736.5 525 736.5H414C412.067 736.5 410.5 734.933 410.5 733V690Z" fill="#2C3763" stroke="#3F4B79"/>
<path d="M538.5 690C538.5 688.067 540.067 686.5 542 686.5H653C654.933 686.5 656.5 688.067 656.5 690V733C656.5 734.933 654.933 736.5 653 736.5H542C540.067 736.5 538.5 734.933 538.5 733V690Z" fill="#2C3763" stroke="#3F4B79"/>
<path d="M69.1788 718.224C71.7392 718.224 73.2853 716.275 73.2903 712.919C73.2953 709.588 71.7292 707.679 69.1788 707.679C66.6234 707.679 65.0723 709.583 65.0673 712.919C65.0574 716.265 66.6135 718.219 69.1788 718.224ZM69.1788 716.439C68.0105 716.439 67.2548 715.266 67.2598 712.919C67.2647 710.607 68.0154 709.444 69.1788 709.444C70.3372 709.444 71.0929 710.607 71.0929 712.919C71.0978 715.266 70.3422 716.439 69.1788 716.439ZM75.6593 718.129C76.2956 718.129 76.8475 717.597 76.8525 716.936C76.8475 716.285 76.2956 715.753 75.6593 715.753C75.003 715.753 74.4611 716.285 74.4661 716.936C74.4611 717.597 75.003 718.129 75.6593 718.129ZM82.1397 718.224C84.7001 718.224 86.2463 716.275 86.2512 712.919C86.2562 709.588 84.6902 707.679 82.1397 707.679C79.5843 707.679 78.0332 709.583 78.0282 712.919C78.0183 716.265 79.5744 718.219 82.1397 718.224ZM82.1397 716.439C80.9714 716.439 80.2157 715.266 80.2207 712.919C80.2257 710.607 80.9764 709.444 82.1397 709.444C83.2981 709.444 84.0538 710.607 84.0538 712.919C84.0588 715.266 83.3031 716.439 82.1397 716.439ZM91.7784 718.224C94.3388 718.224 95.8849 716.275 95.8899 712.919C95.8949 709.588 94.3288 707.679 91.7784 707.679C89.223 707.679 87.6719 709.583 87.6669 712.919C87.657 716.265 89.2131 718.219 91.7784 718.224ZM91.7784 716.439C90.6101 716.439 89.8544 715.266 89.8594 712.919C89.8643 710.607 90.6151 709.444 91.7784 709.444C92.9368 709.444 93.6925 710.607 93.6925 712.919C93.6974 715.266 92.9418 716.439 91.7784 716.439ZM99.2147 710.364H97.0272L99.2147 714.182L96.9476 718H99.1351L100.617 715.36L102.123 718H104.286L102.014 714.182L104.226 710.364H102.053L100.617 713.033L99.2147 710.364Z" fill="white"/>
<path fill-rule="evenodd" clip-rule="evenodd" d="M24 690C24 687.791 25.7909 686 28 686H139C141.209 686 143 687.791 143 690H24Z" fill="#3F4B79"/>
<path d="M197.718 707.818H195.694L193.174 709.414V711.323L195.506 709.862H195.565V718H197.718V707.818ZM200.862 718.129C201.499 718.129 202.051 717.597 202.056 716.936C202.051 716.285 201.499 715.753 200.862 715.753C200.206 715.753 199.664 716.285 199.669 716.936C199.664 717.597 200.206 718.129 200.862 718.129ZM207.411 718.139C209.678 718.139 211.219 716.663 211.214 714.604C211.219 712.656 209.857 711.254 208.023 711.254C207.128 711.254 206.357 711.626 205.999 712.129H205.94L206.203 709.578H210.653V707.818H204.428L203.946 713.188L205.86 713.531C206.173 713.108 206.78 712.844 207.381 712.844C208.406 712.849 209.141 713.59 209.141 714.659C209.141 715.718 208.42 716.449 207.411 716.449C206.556 716.449 205.865 715.912 205.815 715.121H203.727C203.767 716.881 205.303 718.139 207.411 718.139ZM216.708 718.224C219.268 718.224 220.815 716.275 220.82 712.919C220.825 709.588 219.259 707.679 216.708 707.679C214.153 707.679 212.602 709.583 212.597 712.919C212.587 716.265 214.143 718.219 216.708 718.224ZM216.708 716.439C215.54 716.439 214.784 715.266 214.789 712.919C214.794 710.607 215.545 709.444 216.708 709.444C217.866 709.444 218.622 710.607 218.622 712.919C218.627 715.266 217.871 716.439 216.708 716.439ZM224.433 707.818H221.992L225.119 712.909L221.932 718H224.398L226.486 714.525H226.566L228.654 718H231.129L227.953 712.909L231.06 707.818H228.629L226.566 711.288H226.486L224.433 707.818Z" fill="white"/>
<path fill-rule="evenodd" clip-rule="evenodd" d="M153 690C153 687.791 154.791 686 157 686H268C270.209 686 272 687.791 272 690H153Z" fill="white"/>
<path d="M319.9 718H327.159V716.24H322.883V716.17L324.37 714.714C326.463 712.805 327.025 711.85 327.025 710.692C327.025 708.927 325.583 707.679 323.4 707.679C321.263 707.679 319.796 708.957 319.801 710.955H321.844C321.839 709.981 322.456 709.384 323.386 709.384C324.28 709.384 324.947 709.941 324.947 710.836C324.947 711.646 324.449 712.203 323.525 713.093L319.9 716.449V718ZM329.977 718.129C330.613 718.129 331.165 717.597 331.17 716.936C331.165 716.285 330.613 715.753 329.977 715.753C329.32 715.753 328.778 716.285 328.783 716.936C328.778 717.597 329.32 718.129 329.977 718.129ZM336.457 718.224C339.017 718.224 340.564 716.275 340.569 712.919C340.574 709.588 339.008 707.679 336.457 707.679C333.902 707.679 332.351 709.583 332.346 712.919C332.336 716.265 333.892 718.219 336.457 718.224ZM336.457 716.439C335.289 716.439 334.533 715.266 334.538 712.919C334.543 710.607 335.294 709.444 336.457 709.444C337.616 709.444 338.371 710.607 338.371 712.919C338.376 715.266 337.62 716.439 336.457 716.439ZM346.096 718.224C348.656 718.224 350.202 716.275 350.207 712.919C350.212 709.588 348.646 707.679 346.096 707.679C343.54 707.679 341.989 709.583 341.984 712.919C341.974 716.265 343.53 718.219 346.096 718.224ZM346.096 716.439C344.927 716.439 344.172 715.266 344.177 712.919C344.182 710.607 344.932 709.444 346.096 709.444C347.254 709.444 348.01 710.607 348.01 712.919C348.015 715.266 347.259 716.439 346.096 716.439ZM353.82 707.818H351.379L354.506 712.909L351.32 718H353.786L355.874 714.525H355.953L358.041 718H360.517L357.34 712.909L360.448 707.818H358.016L355.953 711.288H355.874L353.82 707.818Z" fill="white"/>
<path fill-rule="evenodd" clip-rule="evenodd" d="M281 690C281 687.791 282.791 686 285 686H396C398.209 686 400 687.791 400 690H281Z" fill="#64D2FF"/>
<path d="M455.087 718.139C457.374 718.139 459.009 716.881 459.004 715.141C459.009 713.874 458.204 712.969 456.708 712.78V712.7C457.846 712.496 458.632 711.691 458.627 710.548C458.632 708.942 457.225 707.679 455.117 707.679C453.029 707.679 451.458 708.902 451.428 710.662H453.491C453.516 709.886 454.227 709.384 455.107 709.384C455.977 709.384 456.558 709.911 456.553 710.677C456.558 711.477 455.877 712.019 454.898 712.019H453.948V713.6H454.898C456.051 713.6 456.772 714.177 456.767 714.997C456.772 715.808 456.076 716.364 455.092 716.364C454.142 716.364 453.431 715.867 453.392 715.121H451.224C451.259 716.901 452.85 718.139 455.087 718.139ZM461.523 718.129C462.159 718.129 462.711 717.597 462.716 716.936C462.711 716.285 462.159 715.753 461.523 715.753C460.866 715.753 460.324 716.285 460.329 716.936C460.324 717.597 460.866 718.129 461.523 718.129ZM468.003 718.224C470.563 718.224 472.11 716.275 472.115 712.919C472.119 709.588 470.553 707.679 468.003 707.679C465.448 707.679 463.896 709.583 463.892 712.919C463.882 716.265 465.438 718.219 468.003 718.224ZM468.003 716.439C466.835 716.439 466.079 715.266 466.084 712.919C466.089 710.607 466.84 709.444 468.003 709.444C469.161 709.444 469.917 710.607 469.917 712.919C469.922 715.266 469.166 716.439 468.003 716.439ZM477.642 718.224C480.202 718.224 481.748 716.275 481.753 712.919C481.758 709.588 480.192 707.679 477.642 707.679C475.086 707.679 473.535 709.583 473.53 712.919C473.52 716.265 475.076 718.219 477.642 718.224ZM477.642 716.439C476.473 716.439 475.718 715.266 475.723 712.919C475.728 710.607 476.478 709.444 477.642 709.444C478.8 709.444 479.556 710.607 479.556 712.919C479.561 715.266 478.805 716.439 477.642 716.439ZM485.078 710.364H482.89L485.078 714.182L482.811 718H484.998L486.48 715.36L487.986 718H490.149L487.877 714.182L490.089 710.364H487.917L486.48 713.033L485.078 710.364Z" fill="white"/>
<path fill-rule="evenodd" clip-rule="evenodd" d="M410 690C410 687.791 411.791 686 414 686H525C527.209 686 529 687.791 529 690H410Z" fill="#FF9F0A"/>
<path d="M582.658 718.139C584.925 718.139 586.467 716.663 586.462 714.604C586.467 712.656 585.104 711.254 583.27 711.254C582.375 711.254 581.604 711.626 581.246 712.129H581.187L581.45 709.578H585.9V707.818H579.675L579.193 713.188L581.107 713.531C581.42 713.108 582.027 712.844 582.628 712.844C583.653 712.849 584.388 713.59 584.388 714.659C584.388 715.718 583.668 716.449 582.658 716.449C581.803 716.449 581.112 715.912 581.062 715.121H578.974C579.014 716.881 580.55 718.139 582.658 718.139ZM588.906 718.129C589.543 718.129 590.095 717.597 590.1 716.936C590.095 716.285 589.543 715.753 588.906 715.753C588.25 715.753 587.708 716.285 587.713 716.936C587.708 717.597 588.25 718.129 588.906 718.129ZM595.387 718.224C597.947 718.224 599.493 716.275 599.498 712.919C599.503 709.588 597.937 707.679 595.387 707.679C592.831 707.679 591.28 709.583 591.275 712.919C591.265 716.265 592.821 718.219 595.387 718.224ZM595.387 716.439C594.218 716.439 593.463 715.266 593.468 712.919C593.473 710.607 594.223 709.444 595.387 709.444C596.545 709.444 597.301 710.607 597.301 712.919C597.306 715.266 596.55 716.439 595.387 716.439ZM605.025 718.224C607.586 718.224 609.132 716.275 609.137 712.919C609.142 709.588 607.576 707.679 605.025 707.679C602.47 707.679 600.919 709.583 600.914 712.919C600.904 716.265 602.46 718.219 605.025 718.224ZM605.025 716.439C603.857 716.439 603.101 715.266 603.106 712.919C603.111 710.607 603.862 709.444 605.025 709.444C606.184 709.444 606.94 710.607 606.94 712.919C606.945 715.266 606.189 716.439 605.025 716.439ZM612.462 710.364H610.274L612.462 714.182L610.195 718H612.382L613.864 715.36L615.37 718H617.533L615.261 714.182L617.473 710.364H615.301L613.864 713.033L612.462 710.364Z" fill="white"/>
<path fill-rule="evenodd" clip-rule="evenodd" d="M538 690C538 687.791 539.791 686 542 686H653C655.209 686 657 687.791 657 690H538Z" fill="#FFD60A"/>
<g clip-path="url(#clip1)">
<path d="M342.787 72.0076C352.38 72.0803 361.95 72.6771 371.481 73.8154L365.41 121.99C357.894 121.114 350.342 120.64 342.787 120.569V72.0076Z" fill="#2C3763" stroke="#222C55" stroke-width="4"/>
</g>
<g clip-path="url(#clip2)">
<path d="M0.375977 4C0.375977 1.791 2.16698 0 4.37598 0H438.612C448.112 4.478 436.677 14.645 389.112 14.522C294.484 14.278 214.738 25.034 180.112 29.522C153.112 33.021 149.612 40.022 163.612 45.022C175.252 49.179 200.091 65.985 154.719 71.974C83.756 81.342 33.436 110.819 0.375977 193.022V4Z" fill="#141D45"/>
<path d="M681.376 65.037V110.712C681.077 111.094 680.781 111.478 680.474 111.858C630.126 174.209 533.195 123.957 543.494 52.31C551.903 -6.191 622.151 -12.816 645.913 32.869C669.839 78.868 618.495 119.579 586.507 84.862C561.482 57.702 590.739 18.25 617.427 38.569C641.406 56.825 616.064 89.615 598.501 69.849C588.09 58.132 602.546 41.28 612.368 52.831C618.517 60.062 607.985 69.18 604.444 61.156C602.659 57.113 608.961 56.505 607.566 58.815C607.538 58.862 607.487 58.886 607.465 58.83L607.482 58.793C607.517 58.767 607.509 58.782 607.518 58.758L607.502 58.749C607.348 58.802 606.078 57.205 605.722 59.626C605.295 62.528 613.262 62.739 611.022 56.925C608.21 49.628 596.208 53.288 600.215 62.971C605.636 76.069 626.399 69.114 619.268 52.457C611.109 33.399 580.683 39.737 586.644 65.191C593.781 95.666 642.409 94.98 640.225 56.379C637.753 12.693 570.091 -2.139 558.607 48.277C546.141 103.004 621.162 149.309 663.067 106.223C674.806 94.153 680.317 79.76 681.376 65.037ZM660.205 0H678.148C679.931 0 681.377 1.446 681.377 3.229V54.148C680.076 35.429 672.309 16.97 661.667 2.838C660.999 1.974 660.515 1.013 660.205 0Z" fill="#141D45"/>
<path fill-rule="evenodd" clip-rule="evenodd" d="M400.976 480.11C400.976 480.11 398.898 476.135 402.484 462.928C406.069 449.722 406.36 405.901 406.36 391.253C406.36 376.606 406.36 376.606 406.36 376.606C407.17 401.113 407.3 443.101 412.642 465.427C414.617 473.683 417.006 485.67 407.186 483.81C403.428 483.099 400.976 480.11 400.976 480.11Z" fill="#2C3661"/>
<path fill-rule="evenodd" clip-rule="evenodd" d="M401.231 479.642L406.681 472.889C407.205 472.24 408.071 472.252 408.607 472.916L414.013 479.614C414.549 480.278 414.559 481.352 414.035 482.001L408.585 488.754C408.062 489.403 407.195 489.391 406.659 488.727L401.253 482.029C400.717 481.365 400.707 480.291 401.231 479.642Z" fill="#1C264D"/>
<path fill-rule="evenodd" clip-rule="evenodd" d="M412.317 484.131L408.608 488.727C408.072 489.391 407.195 489.391 406.66 488.727L402.951 484.131C402.754 483.674 402.81 483.09 403.12 482.706L406.945 477.967C407.324 477.497 407.945 477.497 408.323 477.967L412.148 482.706C412.457 483.09 412.514 483.674 412.317 484.131Z" fill="#FF6E00"/>
<path fill-rule="evenodd" clip-rule="evenodd" d="M493.699 313.242C493.699 313.242 490.329 306.793 496.144 285.371C501.96 263.949 502.431 192.867 502.431 169.108C502.431 145.349 502.431 145.349 502.431 145.349C503.744 185.101 503.956 253.211 512.62 289.426C515.824 302.818 519.699 322.263 503.771 319.246C497.677 318.091 493.699 313.242 493.699 313.242Z" fill="#2C3661"/>
<path fill-rule="evenodd" clip-rule="evenodd" d="M494.113 312.483L502.953 301.529C503.803 300.476 505.208 300.496 506.077 301.573L514.846 312.438C515.715 313.515 515.731 315.257 514.881 316.309L506.041 327.263C505.191 328.316 503.786 328.296 502.917 327.219L494.148 316.354C493.28 315.277 493.264 313.536 494.113 312.483Z" fill="#1C264D"/>
<path fill-rule="evenodd" clip-rule="evenodd" d="M512.095 319.765L506.078 327.22C505.209 328.297 503.787 328.297 502.918 327.22L496.901 319.765C496.581 319.023 496.673 318.077 497.176 317.454L503.38 309.766C503.995 309.004 505.001 309.004 505.616 309.766L511.821 317.454C512.323 318.076 512.415 319.023 512.095 319.765Z" fill="#406C82"/>
<path fill-rule="evenodd" clip-rule="evenodd" d="M104.102 127.708C104.102 127.708 100.081 120.014 107.02 94.452C111.543 77.792 113.357 35.963 114.072 0.999023H116.697C118.142 37.24 120.754 74.518 126.68 99.289C130.503 115.269 135.126 138.471 116.12 134.87C108.848 133.495 104.102 127.708 104.102 127.708Z" fill="#2C3661"/>
<path fill-rule="evenodd" clip-rule="evenodd" d="M104.597 126.803L115.146 113.733C116.16 112.477 117.837 112.501 118.874 113.786L129.338 126.751C130.375 128.036 130.394 130.114 129.38 131.37L118.831 144.44C117.817 145.696 116.14 145.673 115.103 144.388L104.639 131.423C103.602 130.138 103.583 128.059 104.597 126.803Z" fill="#1C264D"/>
<path fill-rule="evenodd" clip-rule="evenodd" d="M126.054 135.492L118.874 144.388C117.837 145.673 116.14 145.673 115.104 144.388L107.924 135.492C107.543 134.607 107.652 133.477 108.252 132.734L115.656 123.561C116.389 122.652 117.59 122.652 118.323 123.561L125.727 132.734C126.326 133.477 126.435 134.607 126.054 135.492Z" fill="#1FD14F"/>
<path fill-rule="evenodd" clip-rule="evenodd" d="M120.786 756H4.376C4.002 755.961 3.651 755.903 3.279 755.863C1.603 755.435 0.375 754.05 0.375 752.408V377.002C0.375 377.002 11.561 489.942 175.634 563.201C339.707 636.46 481.171 572.667 521.363 520.39C561.555 468.113 605.707 473.064 626.707 489.224C647.707 505.384 670.707 546.682 604.707 600.549C549.762 645.393 321.784 738.945 120.786 756Z" fill="#242F5E"/>
<path fill-rule="evenodd" clip-rule="evenodd" d="M0.375977 492.422V432.007C0.375977 432.007 7.33998 473.757 28.34 502.257C49.34 530.757 61.84 539.507 61.84 539.507C61.84 539.507 22.683 525.493 0.375977 492.422Z" fill="#19244F"/>
<path fill-rule="evenodd" clip-rule="evenodd" d="M0.375977 617.503C14.2 575.315 51.114 555.822 95.309 564.655C113.394 568.27 128.901 572.378 158.078 584.53C220.835 610.669 277.949 625.514 328.332 630.502C304.433 631.962 239.942 624.479 202.214 614.047C162.217 602.986 125.418 587.294 108.903 583.684C79.745 577.31 48.883 580.384 34.603 586.054C17.93 592.674 4.92498 605.164 0.375977 617.503Z" fill="#19244F"/>
<path fill-rule="evenodd" clip-rule="evenodd" d="M0.375977 377.002C0.375977 377.002 11.562 489.942 175.635 563.201C339.708 636.459 481.172 572.667 521.364 520.39C561.556 468.113 605.708 473.064 626.708 489.224C631.218 492.694 635.818 497.326 639.61 502.991C624.942 493.252 608.032 489.989 594.653 490.512C564.347 491.697 534.379 516.213 517.363 538.345C477.171 590.622 315.567 639.699 171.384 575.321C70.976 530.488 8.37598 466.036 0.375977 377.002Z" fill="#2C3661"/>
<path fill-rule="evenodd" clip-rule="evenodd" d="M681.376 365.666V752C681.376 754.209 679.585 756 677.376 756H4.37598C2.16698 756 0.375977 754.209 0.375977 752V662.543C1.02098 661.915 1.37598 661.594 1.37598 661.594C1.37598 661.594 9.95097 614.594 90.951 606.594C171.951 598.594 255.951 661.594 397.951 648.594C530.687 636.442 672.012 554.376 681.376 365.666ZM681.376 304.892V324.594C681.014 317.025 681.048 310.541 681.376 304.892Z" fill="#1C264D"/>
<path fill-rule="evenodd" clip-rule="evenodd" d="M1.37599 683.51C1.37599 683.51 34.594 647.01 85.094 647.51C135.594 648.01 162.594 661.01 177.594 661.01C192.594 661.01 185.969 661.01 185.969 661.01C185.969 661.01 176.969 667.385 147.344 662.26C130.451 659.338 112.462 657.635 95.97 657.684C65.006 657.776 13.675 674.289 1.37599 702.885C-3.50201 714.227 0.693989 704.148 0.375989 704.64V683.397L1.37599 683.51Z" fill="#2C3661"/>
<path fill-rule="evenodd" clip-rule="evenodd" d="M681.376 521.258C681.376 521.258 643.091 595.758 594.091 623.758C545.091 651.758 483.303 663.775 483.303 663.775C523.751 660.372 570.843 653.441 614.017 632.098C638.748 619.872 662.307 602.459 681.375 583.156V521.258H681.376Z" fill="#2C3661"/>
<path fill-rule="evenodd" clip-rule="evenodd" d="M642.362 505.575C589.522 596.647 491.599 640.02 397.952 648.593C255.952 661.593 171.952 598.593 90.952 606.593C63.446 609.31 44.292 616.523 30.989 624.867C43.542 619.344 59.582 614.935 80.057 612.912C164.588 604.563 252.25 670.31 400.44 656.743C491.912 648.369 587.292 608.18 644.347 525.138C644.914 524.313 645.476 523.484 646.035 522.651C646.038 522.647 646.04 522.643 646.043 522.639C660.139 501.629 671.804 477.924 680.376 451.351V380.22C676.429 424.971 664.824 463.414 647.611 496.084C647.61 496.086 647.609 496.088 647.608 496.09C645.913 499.308 644.164 502.47 642.362 505.575Z" fill="#2C3661"/>
<path fill-rule="evenodd" clip-rule="evenodd" d="M637.907 272.008C637.907 272.008 634.077 265.283 640.686 242.944C647.295 220.605 647.832 146.479 647.832 121.703C647.832 96.927 647.832 96.927 647.832 96.927C649.324 138.381 649.566 209.407 659.412 247.172C663.054 261.138 667.457 281.415 649.354 278.269C642.428 277.064 637.907 272.008 637.907 272.008Z" fill="#2C3661"/>
<path fill-rule="evenodd" clip-rule="evenodd" d="M638.404 271.187L648.4 259.823C649.38 258.709 650.989 258.717 651.977 259.84L661.944 271.171C662.932 272.294 662.938 274.124 661.959 275.237L651.963 286.601C650.983 287.715 649.374 287.707 648.386 286.584L638.419 275.253C637.431 274.13 637.424 272.301 638.404 271.187Z" fill="#1C264D"/>
<path fill-rule="evenodd" clip-rule="evenodd" d="M658.816 278.809L651.977 286.584C650.989 287.707 649.373 287.707 648.386 286.584L641.547 278.809C641.184 278.036 641.288 277.049 641.859 276.399L648.911 268.382C649.61 267.588 650.753 267.588 651.452 268.382L658.504 276.399C659.075 277.049 659.179 278.036 658.816 278.809Z" fill="#F5DE0E"/>
<path fill-rule="evenodd" clip-rule="evenodd" d="M29.147 331.416C29.147 331.416 25.89 325.698 31.511 306.701C37.131 287.704 37.587 224.669 37.587 203.6C37.587 182.531 37.587 182.531 37.587 182.531C38.856 217.783 39.061 278.182 47.435 310.296C50.532 322.172 54.276 339.415 38.882 336.74C32.991 335.716 29.147 331.416 29.147 331.416Z" fill="#2C3661"/>
<path fill-rule="evenodd" clip-rule="evenodd" d="M29.569 330.718L38.07 321.054C38.903 320.107 40.272 320.114 41.112 321.069L49.587 330.704C50.427 331.659 50.433 333.215 49.599 334.162L41.099 343.826C40.266 344.773 38.897 344.767 38.057 343.812L29.581 334.177C28.742 333.221 28.736 331.665 29.569 330.718Z" fill="#1C264D"/>
<path fill-rule="evenodd" clip-rule="evenodd" d="M46.927 337.2L41.111 343.812C40.271 344.767 38.897 344.767 38.057 343.812L32.241 337.2C31.932 336.543 32.02 335.703 32.507 335.15L38.504 328.333C39.098 327.658 40.07 327.658 40.665 328.333L46.662 335.15C47.147 335.703 47.236 336.543 46.927 337.2Z" fill="#F5134C"/>
<path fill-rule="evenodd" clip-rule="evenodd" d="M449.971 608.388C449.971 608.388 488.471 591.388 514.471 568.888C548.906 539.089 559.508 517.434 616.971 505.388C587.484 520.963 579.799 526.612 553.927 551.879C528.056 577.146 495.145 604.401 449.971 608.388Z" fill="#19244F"/>
<path fill-rule="evenodd" clip-rule="evenodd" d="M204.273 409.589C204.273 409.589 201.621 404.933 206.197 389.467C210.773 374 211.144 322.68 211.144 305.526C211.144 288.372 211.144 288.372 211.144 288.372C212.177 317.073 212.344 366.247 219.161 392.394C221.682 402.063 224.731 416.102 212.197 413.924C207.403 413.09 204.273 409.589 204.273 409.589Z" fill="#2C3661"/>
<path fill-rule="evenodd" clip-rule="evenodd" d="M204.617 409.021L211.538 401.153C212.216 400.382 213.33 400.387 214.014 401.165L220.914 409.01C221.598 409.787 221.603 411.054 220.924 411.825L214.003 419.693C213.325 420.464 212.211 420.459 211.527 419.681L204.627 411.836C203.943 411.059 203.939 409.792 204.617 409.021Z" fill="#1C264D"/>
<path fill-rule="evenodd" clip-rule="evenodd" d="M218.749 414.298L214.014 419.681C213.33 420.458 212.211 420.458 211.527 419.681L206.792 414.298C206.54 413.763 206.612 413.079 207.008 412.629L211.89 407.079C212.374 406.529 213.165 406.529 213.649 407.079L218.531 412.629C218.929 413.08 219.001 413.763 218.749 414.298Z" fill="#F5DE0E"/>
<path fill-rule="evenodd" clip-rule="evenodd" d="M459.543 54.369L461.037 59.233C461.109 59.469 461.28 59.639 461.516 59.712L466.38 61.206C466.689 61.3 466.891 61.574 466.891 61.897C466.891 62.22 466.689 62.493 466.38 62.588L461.516 64.083C461.28 64.155 461.11 64.326 461.037 64.562L459.543 69.426C459.449 69.735 459.175 69.937 458.852 69.937C458.529 69.937 458.256 69.735 458.161 69.426L456.667 64.562C456.595 64.326 456.424 64.156 456.188 64.083L451.324 62.588C451.015 62.494 450.813 62.22 450.813 61.897C450.813 61.574 451.015 61.301 451.324 61.206L456.188 59.712C456.424 59.64 456.594 59.469 456.667 59.233L458.161 54.369C458.255 54.06 458.529 53.858 458.852 53.858C459.175 53.859 459.448 54.061 459.543 54.369Z" fill="#465285"/>
<path fill-rule="evenodd" clip-rule="evenodd" d="M94.562 171.5L96.056 176.364C96.128 176.6 96.299 176.77 96.535 176.843L101.399 178.337C101.708 178.431 101.91 178.705 101.91 179.028C101.91 179.351 101.708 179.624 101.399 179.719L96.535 181.213C96.299 181.285 96.129 181.456 96.056 181.692L94.562 186.556C94.468 186.865 94.194 187.067 93.871 187.067C93.548 187.067 93.275 186.865 93.18 186.556L91.686 181.692C91.614 181.456 91.443 181.286 91.207 181.213L86.343 179.719C86.034 179.625 85.832 179.351 85.832 179.028C85.832 178.705 86.034 178.432 86.343 178.337L91.207 176.843C91.443 176.771 91.613 176.6 91.686 176.364L93.18 171.5C93.274 171.191 93.548 170.989 93.871 170.989C94.194 170.989 94.468 171.191 94.562 171.5Z" fill="#465285"/>
<path fill-rule="evenodd" clip-rule="evenodd" d="M235.377 39.836L236.871 44.7C236.943 44.936 237.114 45.106 237.35 45.179L242.214 46.673C242.523 46.767 242.725 47.041 242.725 47.364C242.725 47.687 242.523 47.96 242.214 48.055L237.35 49.549C237.114 49.621 236.944 49.792 236.871 50.028L235.377 54.892C235.283 55.201 235.009 55.403 234.686 55.403C234.364 55.403 234.09 55.201 233.995 54.892L232.501 50.028C232.429 49.792 232.258 49.622 232.022 49.549L227.158 48.055C226.849 47.961 226.647 47.687 226.647 47.364C226.647 47.041 226.849 46.768 227.158 46.673L232.022 45.179C232.258 45.107 232.429 44.936 232.501 44.7L233.995 39.836C234.089 39.527 234.363 39.325 234.686 39.325C235.009 39.325 235.283 39.527 235.377 39.836Z" fill="#465285"/>
<path fill-rule="evenodd" clip-rule="evenodd" d="M642.562 379.002L644.056 383.866C644.128 384.102 644.299 384.272 644.535 384.345L649.399 385.839C649.708 385.933 649.91 386.207 649.91 386.53C649.91 386.853 649.708 387.126 649.399 387.221L644.535 388.715C644.299 388.787 644.129 388.958 644.056 389.194L642.562 394.058C642.468 394.367 642.194 394.569 641.871 394.569C641.548 394.569 641.275 394.367 641.18 394.058L639.686 389.194C639.614 388.958 639.443 388.788 639.207 388.715L634.343 387.221C634.034 387.127 633.832 386.853 633.832 386.53C633.832 386.207 634.034 385.934 634.343 385.839L639.207 384.345C639.443 384.273 639.613 384.102 639.686 383.866L641.18 379.002C641.274 378.693 641.548 378.491 641.871 378.491C642.194 378.491 642.468 378.693 642.562 379.002Z" fill="#465285"/>
</g>
</g>
<defs>
<clipPath id="clip0">
<rect width="1468" height="1651" fill="white" transform="translate(-384 -91)"/>
</clipPath>
<clipPath id="clip1">
<rect width="526" height="526" fill="white" transform="translate(78 70)"/>
</clipPath>
<clipPath id="clip2">
<rect width="682.376" height="756" fill="white" transform="translate(-1)"/>
</clipPath>
</defs>
</svg>
