<svg width="70" height="45" viewBox="-300 63 392 320"   fill="none" xmlns="http://www.w3.org/2000/svg">
<g transform="rotate(66 32.066 35.892)"  >
<path d="M111.9 185.6C103 181.5 96.1001 185.1 90.6001 192.5C90.6001 192.5 94.4001 189.9 97.6001 189.8C100.8 189.7 96.2001 192.3 96.2001 192.3C96.2001 192.3 88.5001 195.2 86.3001 197.4C84.2001 199.6 82.9001 205.9 78.6001 207.8C74.3001 209.7 83.8001 205.9 87.3001 206.3C90.9001 206.7 90.9001 206.7 90.9001 206.7C90.9001 206.7 90.1001 205.7 91.2001 205C92.3001 204.3 96.5001 204.2 95.7001 205.9C94.9001 207.6 94.0001 208.5 94.0001 208.5C94.0001 208.5 96.0001 210.4 102 205.1C107.9 199.8 108.3 200.3 110.7 201.4C113.1 202.5 109 204.8 107.7 205.1C104.6 206 116.9 207.8 118.8 199.3C120 193.9 111.9 185.6 111.9 185.6Z" fill="#FFFFCC"/>
<path d="M73.2004 337.342C44.1029 361.555 45.1797 391.601 61.8349 423.085C61.8349 423.085 59.089 405.512 64.0623 394.188C69.0355 382.864 70.4509 403.227 70.4509 403.227C70.4509 403.227 67.7568 434.898 71.7689 446.228C75.9473 457.209 95.7518 472.219 95.2253 490.372C94.6989 508.526 97.2486 469.081 104.464 457.543C111.846 445.656 111.846 445.656 111.846 445.656C111.846 445.656 107.029 446.782 106.418 441.782C105.806 436.783 112.443 421.972 117.04 427.589C121.637 433.205 123.278 437.84 123.278 437.84C123.278 437.84 133.229 434.027 124.728 404.291C116.06 374.905 118.469 374.342 126.296 367.803C134.123 361.264 135.324 379.385 134.208 384.417C132.19 396.723 158.922 356.829 132.445 336.067C115.612 322.902 73.2004 337.342 73.2004 337.342Z" fill="#FFFFCC"/>
<path d="M195.8 239.8L174.2 390.9C173.9 393 171.4 393.8 169.9 392.3L161.7 384.1C160.7 383.1 160.2 381.8 160.2 380.4V313.8C151.6 297.2 129.7 276.4 129.7 276.4L145.9 206.6L151.6 181.9C175.9 204.5 189.7 225.5 194.4 233.2C195.6 235.1 196.1 237.5 195.8 239.8Z" fill="#A81E38"/>
<path d="M0.0999169 239.8L21.6999 390.9C21.9999 393 24.4999 393.8 25.9999 392.3L34.1999 384.1C35.1999 383.1 35.6999 381.8 35.6999 380.4V313.8C44.2999 297.2 66.1999 276.4 66.1999 276.4L49.9999 206.5L44.2999 181.8C19.9999 204.4 6.19992 225.4 1.49992 233.1C0.199917 235.1 -0.200083 237.5 0.0999169 239.8Z" fill="#A81E38"/>
<path d="M49.9999 206.5L49.6999 207.6C49.1999 208 34.8999 223.3 27.2999 231.4C24.2999 234.6 22.7999 238.8 22.9999 243.2L30.2999 387.9L25.8999 392.3C25.3999 392.8 24.7999 393 24.1999 393C22.9999 393 21.8999 392.2 21.6999 390.8L0.0999169 239.8C-0.200083 237.5 0.199917 235.2 1.49992 233.2C6.19992 225.4 19.9999 204.5 44.2999 181.9L44.7999 183.8L49.9999 206.5Z" fill="#E52320"/>
<path d="M41.6999 187.7C41.6999 187.7 16.5999 212.7 4.99992 233.8C3.99992 235.6 3.59992 237.6 3.89992 239.6L24.1999 393C22.9999 393 21.8999 392.2 21.6999 390.8L0.0999169 239.8C-0.200083 237.5 0.199917 235.2 1.49992 233.2C6.19992 225.4 19.9999 204.5 44.2999 181.9L44.7999 183.8L41.6999 187.7Z" fill="#ED6C6D"/>
<path d="M136.2 306.8C136.9 308.7 136 310.9 134.1 311.8C127.4 314.8 112.2 320.9 97.9999 320.9C83.7999 320.9 68.5999 314.8 61.8999 311.8C59.9999 310.9 59.0999 308.7 59.7999 306.8C60.7999 304.1 62.4999 299.5 65.4999 291.2C68.9999 281.7 56.6999 250.7 46.6999 214.3C46.2999 213 45.9999 211.7 45.5999 210.3C43.5999 202.9 41.7999 195.4 40.1999 187.7V187.6C35.1999 163.6 32.6999 139 37.1999 117.6C39.9999 105.7 43.6999 94.1 47.9999 83.1C66.8999 35.7 98.0999 0 98.0999 0C99.0999 1.1 129.6 36.4 148.2 83.1C152.6 94 156.3 105.6 158.8 117.5C172.2 181 124.1 273.3 130.5 291.1C133.5 299.5 135.2 304.1 136.2 306.8Z" fill="#D9D7E4"/>
<path d="M129.6 310.4C129.6 310.4 136.4 328.7 135.2 333.4C134 338.1 115.8 344.6 98.0999 344.6C80.3999 344.6 62.1999 338.2 60.9999 333.4C59.7999 328.6 66.5999 310.4 66.5999 310.4C67.6999 310.7 129.6 310.4 129.6 310.4Z" fill="#77142D"/>
<path d="M148.2 83.2C143.1 87.8 136.2 90.9 129.2 93C114 97.6 98.1 97.6 98.1 97.6C98.1 97.6 64 97.5 48 83.1C66.9 35.7 98.1 0 98.1 0C98.2 0.1 98.6 0.5 99.2 1.3C99.3 1.4 99.5 1.6 99.6 1.8C100.3 2.7 101.4 3.9 102.6 5.5C103 6 103.4 6.5 103.8 7C106.4 10.3 109.6 14.6 113.3 19.8C113.7 20.3 114 20.8 114.4 21.4C115.7 23.3 117.1 25.3 118.5 27.4C119 28.1 119.4 28.8 119.9 29.5C120.5 30.4 121.1 31.4 121.7 32.3C122.4 33.5 123.2 34.7 124 35.9C124.4 36.6 124.8 37.2 125.3 37.9C126.1 39.2 126.9 40.5 127.7 41.8C128.6 43.3 129.5 44.9 130.4 46.5C130.8 47.1 131.1 47.7 131.4 48.3C131.9 49.1 132.3 49.9 132.8 50.7C133.3 51.5 133.7 52.4 134.2 53.3C135.8 56.2 137.4 59.2 138.9 62.3C139.4 63.3 139.9 64.4 140.4 65.4C140.6 65.7 140.7 66 140.9 66.3C141.4 67.4 142 68.5 142.5 69.7C142.8 70.3 143 70.8 143.3 71.4C143.8 72.5 144.3 73.6 144.8 74.6C145.3 75.7 145.7 76.7 146.2 77.8C146.8 79.5 147.5 81.3 148.2 83.2Z" fill="#E52320"/>
<path d="M195.8 239.8L174.2 390.9C173.9 393 171.4 393.8 169.9 392.3L165.5 387.9L172.9 243.2C173.1 238.8 171.6 234.6 168.6 231.4C161 223.3 146.8 208 146.2 207.6L145.9 206.5L151.6 181.8C175.9 204.4 189.7 225.4 194.4 233.1C195.6 235.1 196.1 237.5 195.8 239.8Z" fill="#E52320"/>
<path d="M148.2 83.2C143.1 87.8 136.2 90.9 129.2 93C117.5 38.2 98.7999 1.4 98.0999 0C98.1999 0.1 98.5999 0.5 99.1999 1.3C99.2999 1.4 99.4999 1.6 99.5999 1.8C100.3 2.7 101.4 3.9 102.6 5.5C103 6 103.4 6.5 103.8 7C106.4 10.3 109.6 14.6 113.3 19.8C113.7 20.3 114 20.8 114.4 21.4C115.7 23.3 117.1 25.3 118.5 27.4C119 28.1 119.4 28.8 119.9 29.5C120.5 30.4 121.1 31.4 121.7 32.3C122.4 33.5 123.2 34.7 124 35.9C124.4 36.6 124.8 37.2 125.3 37.9C126.1 39.2 126.9 40.5 127.7 41.8C128.6 43.3 129.5 44.9 130.4 46.5C130.8 47.1 131.1 47.7 131.4 48.3C131.9 49.1 132.3 49.9 132.8 50.7C133.3 51.5 133.7 52.4 134.2 53.3C135.8 56.2 137.4 59.2 138.9 62.3C139.4 63.3 139.9 64.4 140.4 65.4C140.6 65.7 140.7 66 140.9 66.3C141.4 67.4 142 68.5 142.5 69.7C142.8 70.3 143 70.8 143.3 71.4C143.8 72.5 144.3 73.6 144.8 74.6C145.3 75.7 145.7 76.7 146.2 77.8C146.8 79.5 147.5 81.3 148.2 83.2Z" fill="#A81E38"/>
<path d="M40.5 187.7L41.7 192.8C41.2 191 40.8 189.3 40.5 187.7Z" fill="#C2E2DD"/>
<path d="M136.2 306.8C136.9 308.7 136 310.9 134.1 311.8C127.4 314.8 112.2 320.9 98 320.9C83.8 320.9 68.6 314.8 61.9 311.8C60 310.9 59.1 308.7 59.8 306.8C60.8 304.1 62.5 299.5 65.5 291.2C69 281.7 56.7 250.7 46.7 214.3L41.5 192.8C48.2 218 66.9 262.8 79.6 266.7C86.3 268.8 88.8 237.6 88.8 237.6L101 190C113.4 219 144.9 196.7 134.7 124C133.2 113.1 131.3 102.7 129.2 92.9C136.2 90.8 143.1 87.7 148.2 83.1C152.6 94 156.3 105.6 158.8 117.5C172.2 181 124.1 273.3 130.5 291.1C133.5 299.5 135.2 304.1 136.2 306.8Z" fill="#B5B1D4"/>
<path d="M99.7999 388.9C99.4999 390.9 96.6999 390.9 96.3999 388.9C92.4999 362.6 90.5999 295.2 89.0999 249.3C88.0999 217.2 91.6999 197.4 94.6999 186.9C95.6999 183.4 100.6 183.4 101.5 186.9C104.5 197.4 108.1 217.2 107.1 249.3C105.7 295.2 103.8 362.6 99.7999 388.9Z" fill="#A81E38"/>
<path d="M98.182 154.803L89.6968 163.288L98.182 171.773L106.667 163.288L98.182 154.803Z" fill="#77142D"/>
<path fill-rule="evenodd" clip-rule="evenodd" d="M117.8 135.1L116 133.3L98.0998 115.4L80.1998 133.3L78.3999 135.1C73.4999 140.1 73.4999 148.1 78.3999 153C80.8999 155.5 84.0999 156.7 87.3999 156.7C90.5999 156.7 93.8999 155.5 96.3999 153L98.1998 151.2L99.9999 153C102.5 155.5 105.7 156.7 109 156.7C112.3 156.7 115.5 155.5 118 153C122.7 148.1 122.7 140.1 117.8 135.1ZM108 141.4L98.0998 151.3L89.0999 142.3L88.1998 141.4C85.6998 138.9 85.6998 134.9 88.1998 132.4C89.3998 131.2 91.0998 130.5 92.6998 130.5C94.2998 130.5 95.8998 131.1 97.1998 132.4L98.0998 133.3L98.9999 132.4C100.2 131.2 101.9 130.5 103.5 130.5C105.1 130.5 106.7 131.1 108 132.4C110.5 134.9 110.5 138.9 108 141.4Z" fill="#77142D"/>
</g>
</svg>
