<svg width="482" height="411" viewBox="0 0 482 411" fill="none" xmlns="http://www.w3.org/2000/svg">
<path d="M476.6 252.6C451.9 311.5 365.7 312.9 365.7 312.9C365.7 312.9 380.5 371.9 326.8 400C273.1 428.1 235.7 392.9 235.7 392.9C235.7 392.9 200.5 424.4 154.5 404C108.5 383.6 108.2 317.6 108.2 317.6C108.2 317.6 -0.599969 320.3 3.11194e-05 249.5C0.600031 178.7 80.6 171.8 80.6 171.8C80 91.7999 147 82.7999 147 82.7999C147 82.7999 150.8 15.2999 218.6 2.19993C293.3 -12.2001 317.2 49.5999 317.2 49.5999C420.6 58.2999 397.9 126 397.9 126C434.6 138.9 501.3 193.7 476.6 252.6Z" fill="#C74917"/>
<path d="M226.4 77.3001C225.1 77.9001 268.8 70.2001 284.9 105.9C300.9 141.6 301.4 105.9 301.4 105.9C301.4 105.9 283.6 50.6001 226.4 77.3001Z" fill="#AB2E17"/>
<path d="M181.9 104.9C181.9 104.9 156.3 115.2 167.4 162.1C167.4 162.1 101 196.7 103.8 246.1C106.6 295.5 157.2 288.1 157.2 288.1C157.2 288.1 155.7 328.9 203.8 324.2C203.8 324.2 239.4 357.8 278.5 331.3C310 310 303.1 272.6 303.1 272.6C303.1 272.6 331 272.9 333.2 244.8C333.2 244.8 382.2 244.1 385.7 195.7C388.8 152.5 339.6 148.1 339.6 148.1C339.6 148.1 341.2 108.9 300.5 103.6C259.8 98.2998 241.5 117.5 241.5 117.5C241.5 117.5 210.5 93.7998 181.9 104.9Z" fill="#F8AB06"/>
<path d="M185.7 157.8C185.7 157.8 172.1 170.5 174.5 192.1C177 213.7 179.4 224.5 167.7 254.5C156 284.5 197.9 305.2 218.6 290.6C239.3 276.1 239 263.7 258.8 264.3C278.6 264.9 286.4 237.6 307.3 239C336 240.9 354.9 195.5 323.1 172C291.3 148.5 279.9 167.1 263.2 148.8C246.5 130.6 230.8 137.1 220 143.9C209.1 150.7 195 148.5 185.7 157.8Z" fill="#F9D025"/>
<path d="M208.8 163.4C208.8 163.4 188.1 164.6 187.5 181.9C186.9 199.2 221.8 209.4 236.9 229.5C252 249.6 269 225.2 296.5 227.3C324 229.5 315.6 192.1 292.5 182.2C269.4 172.3 261.3 152.3 208.8 163.4Z" fill="#F2EA70"/>
<path d="M193.8 233.2C186.5 238.1 183.4 251.4 187.5 264.1C191.6 276.8 216.2 266 218.4 251.1C220.6 236.2 210.2 222.2 193.8 233.2Z" fill="#F2EA70"/>
<path d="M289.6 125.9C289.6 125.9 275 125.7 274 137.8C273 149.9 289.6 153 298.1 145C306.6 137 305 125.9 289.6 125.9Z" fill="#F2EA70"/>
<path d="M198.7 335.899C198.7 335.899 189.9 335.799 189.3 343.099C188.7 350.399 198.7 352.199 203.7 347.399C208.8 342.599 207.9 335.899 198.7 335.899Z" fill="#ED6D1B"/>
<path d="M372.3 259.199C372.3 259.199 370 267.699 376.9 270.099C383.8 272.499 388.1 263.299 384.7 257.199C381.3 251.099 374.6 250.299 372.3 259.199Z" fill="#ED6D1B"/>
<path d="M356.3 86.8995C356.3 86.8995 344.4 91.9994 347.9 102.199C351.4 112.399 366 108.899 370 99.3995C373.9 89.7995 368.8 81.2995 356.3 86.8995Z" fill="#ED6D1B"/>
<path d="M448.7 79.1003C448.7 79.1003 425.5 89.0003 431.7 107.2C437.8 125.4 466.1 118.2 474.3 100.7C482.5 83.2003 473 68.3003 448.7 79.1003Z" fill="#ED6C1A"/>
<path d="M236.3 316.6C231.1 314.9 228.6 309 230.7 303.9C233.1 298.1 238.9 290 252.7 285.1C275.9 276.8 285.4 294.7 278.3 303.6C272.6 310.8 249.4 320.8 236.3 316.6Z" fill="#F2EA70"/>
<path d="M252.6 368.5C252.6 368.5 245.8 383.6 235.6 392.9C235.6 392.9 200.4 424.4 154.4 404C108.4 383.6 108.1 317.6 108.1 317.6C108.1 317.6 -0.599967 320.3 3.33856e-05 249.5C0.600033 178.7 80.6 171.8 80.6 171.8C80 91.7995 147 82.7995 147 82.7995C147 82.7995 178.5 81.3995 196.6 96.0995C196.6 96.0995 80.9 79.6995 99.2 185.1C99.2 185.1 17.4 186.3 22 251.2C26.6 316.1 127.3 301.799 127.3 301.799C127.3 301.799 116.5 363.9 161.6 387.7C206.6 411.4 252.6 368.5 252.6 368.5Z" fill="#AB2E17"/>
<path d="M476.6 252.6C451.9 311.5 365.7 312.9 365.7 312.9C365.7 312.9 485.5 283.9 467 212.8C448.5 141.8 363.2 123.7 363.2 123.7C377.4 119.5 397.9 125.9 397.9 125.9C434.6 138.9 501.3 193.7 476.6 252.6Z" fill="#ED6A18"/>
<path d="M295.4 326.2C295.4 326.2 335.9 319.9 346.7 286.5C346.7 286.5 351.6 304.7 333.3 320.2C322 329.6 295.4 326.2 295.4 326.2Z" fill="#AB2E17"/>
<path d="M460.572 335.125C462.773 327.944 456.167 319.551 445.818 316.379C435.468 313.208 425.294 316.458 423.093 323.64C420.892 330.821 427.498 339.214 437.848 342.385C448.198 345.557 458.372 342.307 460.572 335.125Z" fill="#C74917"/>
<path d="M454.323 326.106C454.97 323.994 451.6 321.088 446.795 319.615C441.989 318.143 437.569 318.661 436.922 320.773C436.275 322.885 439.645 325.791 444.451 327.264C449.256 328.737 453.676 328.218 454.323 326.106Z" fill="#ED6D1B"/>
<path d="M59.0098 141.56C62.0682 131.58 52.8615 119.909 38.446 115.491C24.0305 111.073 9.86513 115.583 6.80674 125.563C3.74836 135.542 12.9551 147.214 27.3706 151.632C41.7861 156.049 55.9514 151.54 59.0098 141.56Z" fill="#C74917"/>
<path d="M42.0111 125.303C42.3246 122.337 37.9035 119.438 32.1364 118.829C26.3693 118.219 21.4401 120.13 21.1266 123.096C20.8132 126.061 25.2342 128.96 31.0013 129.569C36.7684 130.179 41.6977 128.269 42.0111 125.303Z" fill="#ED6D1B"/>
<path d="M21.3756 174.655C28.1768 171.737 32.0485 165.545 30.0232 160.825C27.998 156.105 20.8428 154.644 14.0417 157.562C7.24049 160.48 3.36882 166.672 5.39404 171.392C7.41926 176.113 14.5745 177.574 21.3756 174.655Z" fill="#C74917"/>
</svg>
