<svg width="280" height="394" viewBox="0 0 280 394" fill="none" xmlns="http://www.w3.org/2000/svg">
<rect x="0.5" y="0.5" width="279" height="393" rx="19.5" fill="white" stroke="#D2D2D2"/>
<path fill-rule="evenodd" clip-rule="evenodd" d="M153.755 187.251C152.056 187.251 150.437 187.622 148.961 188.291C150.347 186.102 151.161 183.45 151.161 180.589C151.161 173.084 145.571 167 138.676 167C131.781 167 126.191 173.084 126.191 180.589C126.191 183.313 126.93 185.846 128.197 187.972C126.937 187.507 125.588 187.251 124.184 187.251C117.289 187.251 111.699 193.335 111.699 200.84C111.699 208.346 117.289 214.43 124.184 214.43C125.741 214.43 127.231 214.117 128.606 213.55C128.605 213.553 134.416 211.845 138.235 204.278V208.834C138.235 208.834 136.277 223.196 122.471 224.768H120.267V227.006H157.868V224.768H155.665C141.858 223.196 139.9 208.834 139.9 208.834V204.584C140.611 206.29 144.545 214.627 153.384 214.42C153.508 214.423 153.631 214.43 153.755 214.43C160.651 214.43 166.24 208.346 166.24 200.84C166.24 193.335 160.651 187.251 153.755 187.251Z" fill="#1A1919"/>
<path d="M53.4268 66H29.0615V61.166L40.5605 48.9102C42.1393 47.1849 43.3031 45.6794 44.0518 44.3936C44.8167 43.1077 45.1992 41.887 45.1992 40.7314C45.1992 39.1527 44.8005 37.9157 44.0029 37.0205C43.2054 36.109 42.0661 35.6533 40.585 35.6533C38.9899 35.6533 37.7285 36.2067 36.8008 37.3135C35.8893 38.404 35.4336 39.8444 35.4336 41.6348H28.3535C28.3535 39.4701 28.8662 37.4925 29.8916 35.7021C30.9333 33.9118 32.3981 32.512 34.2861 31.5029C36.1742 30.4775 38.3145 29.9648 40.707 29.9648C44.3691 29.9648 47.2093 30.8437 49.2275 32.6016C51.262 34.3594 52.2793 36.8415 52.2793 40.0479C52.2793 41.8057 51.8236 43.596 50.9121 45.4189C50.0007 47.2419 48.4382 49.3659 46.2246 51.791L38.1436 60.3115H53.4268V66Z" fill="#1A1919"/>
<path d="M250.427 375H226.062V370.166L237.561 357.91C239.139 356.185 240.303 354.679 241.052 353.394C241.817 352.108 242.199 350.887 242.199 349.731C242.199 348.153 241.8 346.916 241.003 346.021C240.205 345.109 239.066 344.653 237.585 344.653C235.99 344.653 234.729 345.207 233.801 346.313C232.889 347.404 232.434 348.844 232.434 350.635H225.354C225.354 348.47 225.866 346.493 226.892 344.702C227.933 342.912 229.398 341.512 231.286 340.503C233.174 339.478 235.314 338.965 237.707 338.965C241.369 338.965 244.209 339.844 246.228 341.602C248.262 343.359 249.279 345.841 249.279 349.048C249.279 350.806 248.824 352.596 247.912 354.419C247.001 356.242 245.438 358.366 243.225 360.791L235.144 369.312H250.427V375Z" fill="#1A1919"/>
</svg>
