<svg width="280" height="394" viewBox="0 0 280 394" fill="none" xmlns="http://www.w3.org/2000/svg">
<rect x="0.5" y="0.5" width="279" height="393" rx="19.5" fill="white" stroke="#D2D2D2"/>
<path fill-rule="evenodd" clip-rule="evenodd" d="M153.755 187.251C152.056 187.251 150.437 187.622 148.961 188.291C150.347 186.102 151.161 183.45 151.161 180.589C151.161 173.084 145.571 167 138.676 167C131.781 167 126.191 173.084 126.191 180.589C126.191 183.313 126.93 185.846 128.197 187.972C126.937 187.507 125.588 187.251 124.184 187.251C117.289 187.251 111.699 193.335 111.699 200.84C111.699 208.346 117.289 214.43 124.184 214.43C125.741 214.43 127.231 214.117 128.606 213.55C128.605 213.553 134.416 211.845 138.235 204.278V208.834C138.235 208.834 136.277 223.196 122.471 224.768H120.267V227.006H157.868V224.768H155.665C141.858 223.196 139.9 208.834 139.9 208.834V204.584C140.611 206.29 144.545 214.627 153.384 214.42C153.508 214.423 153.631 214.43 153.755 214.43C160.651 214.43 166.24 208.346 166.24 200.84C166.24 193.335 160.651 187.251 153.755 187.251Z" fill="#1A1919"/>
<path d="M30.2393 45.1016H33.999C35.7894 45.1016 37.1159 44.654 37.9785 43.7588C38.8411 42.8636 39.2725 41.6755 39.2725 40.1943C39.2725 38.762 38.8411 37.6471 37.9785 36.8496C37.1322 36.0521 35.9603 35.6533 34.4629 35.6533C33.112 35.6533 31.9808 36.0277 31.0693 36.7764C30.1579 37.5088 29.7021 38.4691 29.7021 39.6572H22.6465C22.6465 37.8018 23.1429 36.1416 24.1357 34.6768C25.1449 33.1956 26.5446 32.04 28.335 31.21C30.1416 30.3799 32.1273 29.9648 34.292 29.9648C38.0518 29.9648 40.9977 30.8682 43.1299 32.6748C45.262 34.4652 46.3281 36.9391 46.3281 40.0967C46.3281 41.7243 45.8317 43.2217 44.8389 44.5889C43.846 45.9561 42.5439 47.0059 40.9326 47.7383C42.9346 48.4544 44.4238 49.5286 45.4004 50.9609C46.3932 52.3932 46.8896 54.0859 46.8896 56.0391C46.8896 59.1966 45.734 61.7275 43.4229 63.6318C41.1279 65.5361 38.0843 66.4883 34.292 66.4883C30.7438 66.4883 27.8385 65.5524 25.5762 63.6807C23.3301 61.8089 22.207 59.335 22.207 56.2588H29.2627C29.2627 57.5934 29.7591 58.6839 30.752 59.5303C31.7611 60.3766 32.998 60.7998 34.4629 60.7998C36.1393 60.7998 37.4495 60.3603 38.3936 59.4814C39.3538 58.5863 39.834 57.4062 39.834 55.9414C39.834 52.3932 37.8809 50.6191 33.9746 50.6191H30.2393V45.1016Z" fill="#1A1919"/>
<path d="M231.239 354.102H234.999C236.789 354.102 238.116 353.654 238.979 352.759C239.841 351.864 240.272 350.675 240.272 349.194C240.272 347.762 239.841 346.647 238.979 345.85C238.132 345.052 236.96 344.653 235.463 344.653C234.112 344.653 232.981 345.028 232.069 345.776C231.158 346.509 230.702 347.469 230.702 348.657H223.646C223.646 346.802 224.143 345.142 225.136 343.677C226.145 342.196 227.545 341.04 229.335 340.21C231.142 339.38 233.127 338.965 235.292 338.965C239.052 338.965 241.998 339.868 244.13 341.675C246.262 343.465 247.328 345.939 247.328 349.097C247.328 350.724 246.832 352.222 245.839 353.589C244.846 354.956 243.544 356.006 241.933 356.738C243.935 357.454 245.424 358.529 246.4 359.961C247.393 361.393 247.89 363.086 247.89 365.039C247.89 368.197 246.734 370.728 244.423 372.632C242.128 374.536 239.084 375.488 235.292 375.488C231.744 375.488 228.839 374.552 226.576 372.681C224.33 370.809 223.207 368.335 223.207 365.259H230.263C230.263 366.593 230.759 367.684 231.752 368.53C232.761 369.377 233.998 369.8 235.463 369.8C237.139 369.8 238.45 369.36 239.394 368.481C240.354 367.586 240.834 366.406 240.834 364.941C240.834 361.393 238.881 359.619 234.975 359.619H231.239V354.102Z" fill="#1A1919"/>
</svg>
