<svg width="280" height="394" viewBox="0 0 280 394" fill="none" xmlns="http://www.w3.org/2000/svg">
<rect x="0.5" y="0.5" width="279" height="393" rx="19.5" fill="white" stroke="#D2D2D2"/>
<path fill-rule="evenodd" clip-rule="evenodd" d="M153.755 187.251C152.056 187.251 150.437 187.622 148.961 188.291C150.347 186.102 151.161 183.45 151.161 180.589C151.161 173.084 145.571 167 138.676 167C131.781 167 126.191 173.084 126.191 180.589C126.191 183.313 126.93 185.846 128.197 187.972C126.937 187.507 125.588 187.251 124.184 187.251C117.289 187.251 111.699 193.335 111.699 200.84C111.699 208.346 117.289 214.43 124.184 214.43C125.741 214.43 127.231 214.117 128.606 213.55C128.605 213.553 134.416 211.845 138.235 204.278V208.834C138.235 208.834 136.277 223.196 122.471 224.768H120.267V227.006H157.868V224.768H155.665C141.858 223.196 139.9 208.834 139.9 208.834V204.584C140.611 206.29 144.545 214.627 153.384 214.42C153.508 214.423 153.631 214.43 153.755 214.43C160.651 214.43 166.24 208.346 166.24 200.84C166.24 193.335 160.651 187.251 153.755 187.251Z" fill="#1A1919"/>
<path d="M28.1113 48.5195L30.1621 30.4531H50.084V36.3369H35.9482L35.0693 43.9785C36.7458 43.0833 38.528 42.6357 40.416 42.6357C43.8014 42.6357 46.4544 43.6855 48.375 45.7852C50.2956 47.8848 51.2559 50.8226 51.2559 54.5986C51.2559 56.8936 50.7676 58.9525 49.791 60.7754C48.8307 62.582 47.4473 63.9899 45.6406 64.999C43.834 65.9919 41.7018 66.4883 39.2441 66.4883C37.0957 66.4883 35.1019 66.057 33.2627 65.1943C31.4235 64.3154 29.9668 63.0866 28.8926 61.5078C27.8346 59.929 27.2731 58.1305 27.208 56.1123H34.1904C34.3369 57.5934 34.8496 58.749 35.7285 59.5791C36.6237 60.3929 37.7874 60.7998 39.2197 60.7998C40.8148 60.7998 42.0436 60.2301 42.9063 59.0908C43.7689 57.9352 44.2002 56.3076 44.2002 54.208C44.2002 52.1898 43.7038 50.6436 42.7109 49.5693C41.7181 48.4951 40.3102 47.958 38.4873 47.958C36.8109 47.958 35.4518 48.3975 34.4102 49.2764L33.7266 49.9111L28.1113 48.5195Z" fill="#1A1919"/>
<path d="M224.111 357.52L226.162 339.453H246.084V345.337H231.948L231.069 352.979C232.746 352.083 234.528 351.636 236.416 351.636C239.801 351.636 242.454 352.686 244.375 354.785C246.296 356.885 247.256 359.823 247.256 363.599C247.256 365.894 246.768 367.952 245.791 369.775C244.831 371.582 243.447 372.99 241.641 373.999C239.834 374.992 237.702 375.488 235.244 375.488C233.096 375.488 231.102 375.057 229.263 374.194C227.424 373.315 225.967 372.087 224.893 370.508C223.835 368.929 223.273 367.131 223.208 365.112H230.19C230.337 366.593 230.85 367.749 231.729 368.579C232.624 369.393 233.787 369.8 235.22 369.8C236.815 369.8 238.044 369.23 238.906 368.091C239.769 366.935 240.2 365.308 240.2 363.208C240.2 361.19 239.704 359.644 238.711 358.569C237.718 357.495 236.31 356.958 234.487 356.958C232.811 356.958 231.452 357.397 230.41 358.276L229.727 358.911L224.111 357.52Z" fill="#1A1919"/>
</svg>
