<svg width="280" height="394" viewBox="0 0 280 394" fill="none" xmlns="http://www.w3.org/2000/svg">
<rect x="0.5" y="0.5" width="279" height="393" rx="19.5" fill="white" stroke="#D2D2D2"/>
<path fill-rule="evenodd" clip-rule="evenodd" d="M153.755 187.251C152.056 187.251 150.437 187.622 148.961 188.291C150.347 186.102 151.161 183.45 151.161 180.589C151.161 173.084 145.571 167 138.676 167C131.781 167 126.191 173.084 126.191 180.589C126.191 183.313 126.93 185.846 128.197 187.972C126.937 187.507 125.588 187.251 124.184 187.251C117.289 187.251 111.699 193.335 111.699 200.84C111.699 208.346 117.289 214.43 124.184 214.43C125.741 214.43 127.231 214.117 128.606 213.55C128.605 213.553 134.416 211.845 138.235 204.278V208.834C138.235 208.834 136.277 223.196 122.471 224.768H120.267V227.006H157.868V224.768H155.665C141.858 223.196 139.9 208.834 139.9 208.834V204.584C140.611 206.29 144.545 214.627 153.384 214.42C153.508 214.423 153.631 214.43 153.755 214.43C160.651 214.43 166.24 208.346 166.24 200.84C166.24 193.335 160.651 187.251 153.755 187.251Z" fill="#1A1919"/>
<path d="M50.2305 39.9014C50.2305 41.6266 49.7992 43.1566 48.9365 44.4912C48.0739 45.8258 46.8857 46.8919 45.3721 47.6895C47.0973 48.5195 48.4645 49.667 49.4736 51.1318C50.4827 52.5804 50.9873 54.2894 50.9873 56.2588C50.9873 59.4163 49.9131 61.9147 47.7646 63.7539C45.6162 65.5768 42.6947 66.4883 39 66.4883C35.3053 66.4883 32.3757 65.5687 30.2109 63.7295C28.0462 61.8903 26.9639 59.4001 26.9639 56.2588C26.9639 54.2894 27.4684 52.5723 28.4775 51.1074C29.4867 49.6426 30.8457 48.5033 32.5547 47.6895C31.041 46.8919 29.8529 45.8258 28.9902 44.4912C28.1439 43.1566 27.7207 41.6266 27.7207 39.9014C27.7207 36.874 28.7298 34.4652 30.748 32.6748C32.7663 30.8682 35.5088 29.9648 38.9756 29.9648C42.4261 29.9648 45.1605 30.86 47.1787 32.6504C49.2132 34.4245 50.2305 36.8415 50.2305 39.9014ZM43.9072 55.7461C43.9072 54.1999 43.4596 52.9629 42.5645 52.0352C41.6693 51.1074 40.4648 50.6436 38.9512 50.6436C37.4538 50.6436 36.2575 51.1074 35.3623 52.0352C34.4671 52.9466 34.0195 54.1836 34.0195 55.7461C34.0195 57.2598 34.459 58.4805 35.3379 59.4082C36.2168 60.3359 37.4375 60.7998 39 60.7998C40.5299 60.7998 41.7262 60.3522 42.5889 59.457C43.4678 58.5618 43.9072 57.3249 43.9072 55.7461ZM43.1748 40.2432C43.1748 38.8597 42.8086 37.7529 42.0762 36.9229C41.3438 36.0765 40.3102 35.6533 38.9756 35.6533C37.6572 35.6533 36.6318 36.0602 35.8994 36.874C35.167 37.6878 34.8008 38.8109 34.8008 40.2432C34.8008 41.6592 35.167 42.7985 35.8994 43.6611C36.6318 44.5238 37.6654 44.9551 39 44.9551C40.3346 44.9551 41.36 44.5238 42.0762 43.6611C42.8086 42.7985 43.1748 41.6592 43.1748 40.2432Z" fill="#1A1919"/>
<path d="M248.23 348.901C248.23 350.627 247.799 352.157 246.937 353.491C246.074 354.826 244.886 355.892 243.372 356.689C245.097 357.52 246.465 358.667 247.474 360.132C248.483 361.58 248.987 363.289 248.987 365.259C248.987 368.416 247.913 370.915 245.765 372.754C243.616 374.577 240.695 375.488 237 375.488C233.305 375.488 230.376 374.569 228.211 372.729C226.046 370.89 224.964 368.4 224.964 365.259C224.964 363.289 225.468 361.572 226.478 360.107C227.487 358.643 228.846 357.503 230.555 356.689C229.041 355.892 227.853 354.826 226.99 353.491C226.144 352.157 225.721 350.627 225.721 348.901C225.721 345.874 226.73 343.465 228.748 341.675C230.766 339.868 233.509 338.965 236.976 338.965C240.426 338.965 243.16 339.86 245.179 341.65C247.213 343.424 248.23 345.841 248.23 348.901ZM241.907 364.746C241.907 363.2 241.46 361.963 240.564 361.035C239.669 360.107 238.465 359.644 236.951 359.644C235.454 359.644 234.257 360.107 233.362 361.035C232.467 361.947 232.02 363.184 232.02 364.746C232.02 366.26 232.459 367.48 233.338 368.408C234.217 369.336 235.438 369.8 237 369.8C238.53 369.8 239.726 369.352 240.589 368.457C241.468 367.562 241.907 366.325 241.907 364.746ZM241.175 349.243C241.175 347.86 240.809 346.753 240.076 345.923C239.344 345.076 238.31 344.653 236.976 344.653C235.657 344.653 234.632 345.06 233.899 345.874C233.167 346.688 232.801 347.811 232.801 349.243C232.801 350.659 233.167 351.799 233.899 352.661C234.632 353.524 235.665 353.955 237 353.955C238.335 353.955 239.36 353.524 240.076 352.661C240.809 351.799 241.175 350.659 241.175 349.243Z" fill="#1A1919"/>
</svg>
