<svg width="280" height="394" viewBox="0 0 280 394" fill="none" xmlns="http://www.w3.org/2000/svg">
<rect x="0.5" y="0.5" width="279" height="393" rx="19.5" fill="white" stroke="#D2D2D2"/>
<path fill-rule="evenodd" clip-rule="evenodd" d="M153.755 187.251C152.056 187.251 150.437 187.622 148.961 188.291C150.347 186.102 151.161 183.45 151.161 180.589C151.161 173.084 145.571 167 138.676 167C131.781 167 126.191 173.084 126.191 180.589C126.191 183.313 126.93 185.846 128.197 187.972C126.937 187.507 125.588 187.251 124.184 187.251C117.289 187.251 111.699 193.335 111.699 200.84C111.699 208.346 117.289 214.43 124.184 214.43C125.741 214.43 127.231 214.117 128.606 213.55C128.605 213.553 134.416 211.845 138.235 204.278V208.834C138.235 208.834 136.277 223.196 122.471 224.768H120.267V227.006H157.868V224.768H155.665C141.858 223.196 139.9 208.834 139.9 208.834V204.584C140.611 206.29 144.545 214.627 153.384 214.42C153.508 214.423 153.631 214.43 153.755 214.43C160.651 214.43 166.24 208.346 166.24 200.84C166.24 193.335 160.651 187.251 153.755 187.251Z" fill="#1A1919"/>
<path d="M42.54 30.4531H49.8643V55.0625C49.8643 57.3249 49.3597 59.3268 48.3506 61.0684C47.3577 62.7936 45.9499 64.1283 44.127 65.0723C42.304 66.0163 40.2451 66.4883 37.9502 66.4883C34.1904 66.4883 31.2607 65.5361 29.1611 63.6318C27.0615 61.7113 26.0117 59.0013 26.0117 55.502H33.3848C33.3848 57.2435 33.751 58.5293 34.4834 59.3594C35.2158 60.1895 36.3714 60.6045 37.9502 60.6045C39.3499 60.6045 40.4648 60.1243 41.2949 59.1641C42.125 58.2038 42.54 56.8366 42.54 55.0625V30.4531Z" fill="#1A1919"/>
<path d="M238.54 339.453H245.864V364.062C245.864 366.325 245.36 368.327 244.351 370.068C243.358 371.794 241.95 373.128 240.127 374.072C238.304 375.016 236.245 375.488 233.95 375.488C230.19 375.488 227.261 374.536 225.161 372.632C223.062 370.711 222.012 368.001 222.012 364.502H229.385C229.385 366.243 229.751 367.529 230.483 368.359C231.216 369.189 232.371 369.604 233.95 369.604C235.35 369.604 236.465 369.124 237.295 368.164C238.125 367.204 238.54 365.837 238.54 364.062V339.453Z" fill="#1A1919"/>
</svg>
