<svg width="280" height="394" viewBox="0 0 280 394" fill="none" xmlns="http://www.w3.org/2000/svg">
<rect x="0.5" y="0.5" width="279" height="393" rx="19.5" fill="white" stroke="#D2D2D2"/>
<path fill-rule="evenodd" clip-rule="evenodd" d="M153.756 187.251C152.057 187.251 150.438 187.622 148.961 188.291C150.347 186.102 151.161 183.45 151.161 180.589C151.161 173.084 145.571 167 138.676 167C131.781 167 126.191 173.084 126.191 180.589C126.191 183.313 126.93 185.846 128.197 187.972C126.937 187.507 125.589 187.251 124.184 187.251C117.289 187.251 111.7 193.335 111.7 200.84C111.7 208.346 117.289 214.43 124.184 214.43C125.742 214.43 127.231 214.117 128.606 213.55C128.606 213.553 134.416 211.845 138.236 204.278V208.834C138.236 208.834 136.277 223.196 122.471 224.768H120.267V227.006H157.868V224.768H155.665C141.859 223.196 139.9 208.834 139.9 208.834V204.584C140.612 206.29 144.545 214.627 153.385 214.42C153.508 214.423 153.631 214.43 153.756 214.43C160.651 214.43 166.24 208.346 166.24 200.84C166.24 193.335 160.651 187.251 153.756 187.251Z" fill="#1A1919"/>
<path d="M37.4375 51.7422L33.6289 55.8437V66H26.3047V30.4531H33.6289V46.5664L36.8516 42.1475L45.9092 30.4531H54.918L42.2959 46.249L55.2842 66H46.5684L37.4375 51.7422Z" fill="#1A1919"/>
<path d="M231.438 360.742L227.629 364.844V375H220.305V339.453H227.629V355.566L230.852 351.147L239.909 339.453H248.918L236.296 355.249L249.284 375H240.568L231.438 360.742Z" fill="#1A1919"/>
</svg>
