<svg width="280" height="394" viewBox="0 0 280 394" fill="none" xmlns="http://www.w3.org/2000/svg">
<rect x="0.5" y="0.5" width="279" height="393" rx="19.5" fill="white" stroke="#D2D2D2"/>
<path fill-rule="evenodd" clip-rule="evenodd" d="M153.755 187.251C152.056 187.251 150.437 187.622 148.961 188.291C150.347 186.102 151.161 183.45 151.161 180.589C151.161 173.084 145.571 167 138.676 167C131.781 167 126.191 173.084 126.191 180.589C126.191 183.313 126.93 185.846 128.197 187.972C126.937 187.507 125.588 187.251 124.184 187.251C117.289 187.251 111.699 193.335 111.699 200.84C111.699 208.346 117.289 214.43 124.184 214.43C125.741 214.43 127.231 214.117 128.606 213.55C128.605 213.553 134.416 211.845 138.235 204.278V208.834C138.235 208.834 136.277 223.196 122.471 224.768H120.267V227.006H157.868V224.768H155.665C141.858 223.196 139.9 208.834 139.9 208.834V204.584C140.611 206.29 144.545 214.627 153.384 214.42C153.508 214.423 153.631 214.43 153.755 214.43C160.651 214.43 166.24 208.346 166.24 200.84C166.24 193.335 160.651 187.251 153.755 187.251Z" fill="#1A1919"/>
<path d="M54.0635 49.0322C54.0635 52.3525 53.5264 55.2415 52.4521 57.6992C51.3779 60.1406 49.8887 62.1019 47.9844 63.583L53.8926 68.2217L49.2295 72.3477L41.6611 66.2686C40.7985 66.415 39.9033 66.4883 38.9756 66.4883C36.0296 66.4883 33.401 65.7803 31.0898 64.3643C28.7786 62.9482 26.9883 60.93 25.7188 58.3096C24.4492 55.6728 23.8063 52.6455 23.79 49.2275V47.4697C23.79 43.9704 24.4167 40.8942 25.6699 38.2412C26.9395 35.5719 28.7217 33.5293 31.0166 32.1133C33.3278 30.681 35.9645 29.9648 38.9268 29.9648C41.889 29.9648 44.5176 30.681 46.8125 32.1133C49.1237 33.5293 50.9059 35.5719 52.1592 38.2412C53.4287 40.8942 54.0635 43.9622 54.0635 47.4453V49.0322ZM46.6416 47.4209C46.6416 43.6937 45.9743 40.8617 44.6396 38.9248C43.305 36.988 41.4007 36.0195 38.9268 36.0195C36.4691 36.0195 34.5729 36.9798 33.2383 38.9004C31.9036 40.8047 31.2282 43.6042 31.2119 47.2988V49.0322C31.2119 52.6618 31.8792 55.4775 33.2139 57.4795C34.5485 59.4814 36.4691 60.4824 38.9756 60.4824C41.4333 60.4824 43.3213 59.5221 44.6396 57.6016C45.958 55.6647 46.6253 52.849 46.6416 49.1543V47.4209Z" fill="#1A1919"/>
<path d="M250.063 358.032C250.063 361.353 249.526 364.242 248.452 366.699C247.378 369.141 245.889 371.102 243.984 372.583L249.893 377.222L245.229 381.348L237.661 375.269C236.799 375.415 235.903 375.488 234.976 375.488C232.03 375.488 229.401 374.78 227.09 373.364C224.779 371.948 222.988 369.93 221.719 367.31C220.449 364.673 219.806 361.646 219.79 358.228V356.47C219.79 352.97 220.417 349.894 221.67 347.241C222.939 344.572 224.722 342.529 227.017 341.113C229.328 339.681 231.965 338.965 234.927 338.965C237.889 338.965 240.518 339.681 242.812 341.113C245.124 342.529 246.906 344.572 248.159 347.241C249.429 349.894 250.063 352.962 250.063 356.445V358.032ZM242.642 356.421C242.642 352.694 241.974 349.862 240.64 347.925C239.305 345.988 237.401 345.02 234.927 345.02C232.469 345.02 230.573 345.98 229.238 347.9C227.904 349.805 227.228 352.604 227.212 356.299V358.032C227.212 361.662 227.879 364.478 229.214 366.479C230.549 368.481 232.469 369.482 234.976 369.482C237.433 369.482 239.321 368.522 240.64 366.602C241.958 364.665 242.625 361.849 242.642 358.154V356.421Z" fill="#1A1919"/>
</svg>
