<svg width="280" height="394" viewBox="0 0 280 394" fill="none" xmlns="http://www.w3.org/2000/svg">
<rect x="0.5" y="0.5" width="279" height="393" rx="19.5" fill="white" stroke="#D2D2D2"/>
<path d="M31.1113 44.5195L33.1621 26.4531H53.084V32.3369H38.9482L38.0693 39.9785C39.7458 39.0833 41.528 38.6357 43.416 38.6357C46.8014 38.6357 49.4544 39.6855 51.375 41.7852C53.2956 43.8848 54.2559 46.8226 54.2559 50.5986C54.2559 52.8936 53.7676 54.9525 52.791 56.7754C51.8307 58.582 50.4473 59.9899 48.6406 60.999C46.834 61.9919 44.7018 62.4883 42.2441 62.4883C40.0957 62.4883 38.1019 62.057 36.2627 61.1943C34.4235 60.3154 32.9668 59.0866 31.8926 57.5078C30.8346 55.929 30.2731 54.1305 30.208 52.1123H37.1904C37.3369 53.5934 37.8496 54.749 38.7285 55.5791C39.6237 56.3929 40.7874 56.7998 42.2197 56.7998C43.8148 56.7998 45.0436 56.2301 45.9063 55.0908C46.7689 53.9352 47.2002 52.3076 47.2002 50.208C47.2002 48.1898 46.7038 46.6436 45.7109 45.5693C44.7181 44.4951 43.3102 43.958 41.4873 43.958C39.8109 43.958 38.4518 44.3975 37.4102 45.2764L36.7266 45.9111L31.1113 44.5195Z" fill="#F24822"/>
<path d="M227.111 353.52L229.162 335.453H249.084V341.337H234.948L234.069 348.979C235.746 348.083 237.528 347.636 239.416 347.636C242.801 347.636 245.454 348.686 247.375 350.785C249.296 352.885 250.256 355.823 250.256 359.599C250.256 361.894 249.768 363.952 248.791 365.775C247.831 367.582 246.447 368.99 244.641 369.999C242.834 370.992 240.702 371.488 238.244 371.488C236.096 371.488 234.102 371.057 232.263 370.194C230.424 369.315 228.967 368.087 227.893 366.508C226.835 364.929 226.273 363.131 226.208 361.112H233.19C233.337 362.593 233.85 363.749 234.729 364.579C235.624 365.393 236.787 365.8 238.22 365.8C239.815 365.8 241.044 365.23 241.906 364.091C242.769 362.935 243.2 361.308 243.2 359.208C243.2 357.19 242.704 355.644 241.711 354.569C240.718 353.495 239.31 352.958 237.487 352.958C235.811 352.958 234.452 353.397 233.41 354.276L232.727 354.911L227.111 353.52Z" fill="#F24822"/>
<path fill-rule="evenodd" clip-rule="evenodd" d="M110 197L139.5 228L169 197L139.5 166L110 197Z" fill="#F24822"/>
</svg>
