<svg width="280" height="394" viewBox="0 0 280 394" fill="none" xmlns="http://www.w3.org/2000/svg">
<rect x="0.5" y="0.5" width="279" height="393" rx="19.5" fill="white" stroke="#D2D2D2"/>
<path d="M49.2021 26.0869V31.8975H48.5186C45.3285 31.9463 42.7568 32.7764 40.8037 34.3877C38.8669 35.999 37.7031 38.237 37.3125 41.1016C39.2005 39.181 41.585 38.2207 44.4658 38.2207C47.5583 38.2207 50.016 39.3275 51.8389 41.541C53.6618 43.7546 54.5732 46.668 54.5732 50.2812C54.5732 52.5924 54.0687 54.6839 53.0596 56.5557C52.0667 58.4274 50.6507 59.8841 48.8115 60.9258C46.9886 61.9674 44.9215 62.4883 42.6104 62.4883C38.8669 62.4883 35.8395 61.1862 33.5283 58.582C31.2334 55.9779 30.0859 52.5029 30.0859 48.1572V45.6182C30.0859 41.7607 30.8102 38.359 32.2588 35.4131C33.7236 32.4508 35.8151 30.1641 38.5332 28.5527C41.2676 26.9251 44.4333 26.1032 48.0303 26.0869H49.2021ZM42.3174 43.8848C41.1781 43.8848 40.1445 44.1859 39.2168 44.7881C38.2891 45.374 37.6055 46.1553 37.166 47.1318V49.2803C37.166 51.6403 37.6299 53.4876 38.5576 54.8223C39.4854 56.1406 40.7874 56.7998 42.4639 56.7998C43.9775 56.7998 45.1982 56.2057 46.126 55.0176C47.07 53.8131 47.542 52.2588 47.542 50.3545C47.542 48.4176 47.07 46.8551 46.126 45.667C45.182 44.4788 43.9124 43.8848 42.3174 43.8848Z" fill="#F24822"/>
<path d="M239.202 335.087V340.897H238.519C235.328 340.946 232.757 341.776 230.804 343.388C228.867 344.999 227.703 347.237 227.313 350.102C229.201 348.181 231.585 347.221 234.466 347.221C237.558 347.221 240.016 348.327 241.839 350.541C243.662 352.755 244.573 355.668 244.573 359.281C244.573 361.592 244.069 363.684 243.06 365.556C242.067 367.427 240.651 368.884 238.812 369.926C236.989 370.967 234.922 371.488 232.61 371.488C228.867 371.488 225.84 370.186 223.528 367.582C221.233 364.978 220.086 361.503 220.086 357.157V354.618C220.086 350.761 220.81 347.359 222.259 344.413C223.724 341.451 225.815 339.164 228.533 337.553C231.268 335.925 234.433 335.103 238.03 335.087H239.202ZM232.317 352.885C231.178 352.885 230.145 353.186 229.217 353.788C228.289 354.374 227.605 355.155 227.166 356.132V358.28C227.166 360.64 227.63 362.488 228.558 363.822C229.485 365.141 230.787 365.8 232.464 365.8C233.978 365.8 235.198 365.206 236.126 364.018C237.07 362.813 237.542 361.259 237.542 359.354C237.542 357.418 237.07 355.855 236.126 354.667C235.182 353.479 233.912 352.885 232.317 352.885Z" fill="#F24822"/>
<path fill-rule="evenodd" clip-rule="evenodd" d="M110 197L139.5 228L169 197L139.5 166L110 197Z" fill="#F24822"/>
</svg>
