<svg width="280" height="394" viewBox="0 0 280 394" fill="none" xmlns="http://www.w3.org/2000/svg">
<rect x="0.5" y="0.5" width="279" height="393" rx="19.5" fill="white" stroke="#D2D2D2"/>
<path d="M53.2305 35.9014C53.2305 37.6266 52.7992 39.1566 51.9365 40.4912C51.0739 41.8258 49.8857 42.8919 48.3721 43.6895C50.0973 44.5195 51.4645 45.667 52.4736 47.1318C53.4827 48.5804 53.9873 50.2894 53.9873 52.2588C53.9873 55.4163 52.9131 57.9147 50.7646 59.7539C48.6162 61.5768 45.6947 62.4883 42 62.4883C38.3053 62.4883 35.3757 61.5687 33.2109 59.7295C31.0462 57.8903 29.9639 55.4001 29.9639 52.2588C29.9639 50.2894 30.4684 48.5723 31.4775 47.1074C32.4867 45.6426 33.8457 44.5033 35.5547 43.6895C34.041 42.8919 32.8529 41.8258 31.9902 40.4912C31.1439 39.1566 30.7207 37.6266 30.7207 35.9014C30.7207 32.874 31.7298 30.4652 33.748 28.6748C35.7663 26.8682 38.5088 25.9648 41.9756 25.9648C45.4261 25.9648 48.1605 26.86 50.1787 28.6504C52.2132 30.4245 53.2305 32.8415 53.2305 35.9014ZM46.9072 51.7461C46.9072 50.1999 46.4596 48.9629 45.5645 48.0352C44.6693 47.1074 43.4648 46.6436 41.9512 46.6436C40.4538 46.6436 39.2575 47.1074 38.3623 48.0352C37.4671 48.9466 37.0195 50.1836 37.0195 51.7461C37.0195 53.2598 37.459 54.4805 38.3379 55.4082C39.2168 56.3359 40.4375 56.7998 42 56.7998C43.5299 56.7998 44.7262 56.3522 45.5889 55.457C46.4678 54.5618 46.9072 53.3249 46.9072 51.7461ZM46.1748 36.2432C46.1748 34.8597 45.8086 33.7529 45.0762 32.9229C44.3438 32.0765 43.3102 31.6533 41.9756 31.6533C40.6572 31.6533 39.6318 32.0602 38.8994 32.874C38.167 33.6878 37.8008 34.8109 37.8008 36.2432C37.8008 37.6592 38.167 38.7985 38.8994 39.6611C39.6318 40.5238 40.6654 40.9551 42 40.9551C43.3346 40.9551 44.36 40.5238 45.0762 39.6611C45.8086 38.7985 46.1748 37.6592 46.1748 36.2432Z" fill="#F24822"/>
<path d="M249.23 344.901C249.23 346.627 248.799 348.157 247.937 349.491C247.074 350.826 245.886 351.892 244.372 352.689C246.097 353.52 247.465 354.667 248.474 356.132C249.483 357.58 249.987 359.289 249.987 361.259C249.987 364.416 248.913 366.915 246.765 368.754C244.616 370.577 241.695 371.488 238 371.488C234.305 371.488 231.376 370.569 229.211 368.729C227.046 366.89 225.964 364.4 225.964 361.259C225.964 359.289 226.468 357.572 227.478 356.107C228.487 354.643 229.846 353.503 231.555 352.689C230.041 351.892 228.853 350.826 227.99 349.491C227.144 348.157 226.721 346.627 226.721 344.901C226.721 341.874 227.73 339.465 229.748 337.675C231.766 335.868 234.509 334.965 237.976 334.965C241.426 334.965 244.16 335.86 246.179 337.65C248.213 339.424 249.23 341.841 249.23 344.901ZM242.907 360.746C242.907 359.2 242.46 357.963 241.564 357.035C240.669 356.107 239.465 355.644 237.951 355.644C236.454 355.644 235.257 356.107 234.362 357.035C233.467 357.947 233.02 359.184 233.02 360.746C233.02 362.26 233.459 363.48 234.338 364.408C235.217 365.336 236.438 365.8 238 365.8C239.53 365.8 240.726 365.352 241.589 364.457C242.468 363.562 242.907 362.325 242.907 360.746ZM242.175 345.243C242.175 343.86 241.809 342.753 241.076 341.923C240.344 341.076 239.31 340.653 237.976 340.653C236.657 340.653 235.632 341.06 234.899 341.874C234.167 342.688 233.801 343.811 233.801 345.243C233.801 346.659 234.167 347.799 234.899 348.661C235.632 349.524 236.665 349.955 238 349.955C239.335 349.955 240.36 349.524 241.076 348.661C241.809 347.799 242.175 346.659 242.175 345.243Z" fill="#F24822"/>
<path fill-rule="evenodd" clip-rule="evenodd" d="M110 197L139.5 228L169 197L139.5 166L110 197Z" fill="#F24822"/>
</svg>
