<svg width="283" height="396" viewBox="0 0 283 396" fill="none" xmlns="http://www.w3.org/2000/svg">
<rect x="2.62053" y="0.502687" width="279" height="393" rx="19.5" transform="rotate(0.308765 2.62053 0.502687)" fill="white" stroke="#D2D2D2"/>
<path fill-rule="evenodd" clip-rule="evenodd" d="M153.757 167.221C143.067 167.328 140.876 179.486 140.876 179.486C140.876 179.486 138.475 167.303 127.786 167.081C117.097 166.859 110.468 176.198 114.033 186.085C117.598 195.971 121.191 198.211 126.833 205.395C132.475 212.58 140.672 225 140.615 227.919C140.59 225 148.578 212.667 154.297 205.543C160.016 198.42 163.633 196.219 167.304 186.372C170.976 176.524 164.448 167.114 153.757 167.221Z" fill="#F24822"/>
<path fill-rule="evenodd" clip-rule="evenodd" d="M154.634 167.221C143.943 167.328 141.753 179.486 141.753 179.486C141.753 179.486 139.352 167.303 128.663 167.081C117.974 166.859 111.345 176.198 114.91 186.085C118.475 195.971 122.068 198.211 127.71 205.395C133.351 212.58 141.549 225 141.492 227.919C141.467 225 149.455 212.667 155.174 205.543C160.893 198.42 164.51 196.219 168.181 186.372C171.852 176.524 165.325 167.114 154.634 167.221Z" fill="#F24822"/>
<path d="M54.4268 65H30.0615V60.166L41.5605 47.9102C43.1393 46.1849 44.3031 44.6794 45.0518 43.3936C45.8167 42.1077 46.1992 40.887 46.1992 39.7314C46.1992 38.1527 45.8005 36.9157 45.0029 36.0205C44.2054 35.109 43.0661 34.6533 41.585 34.6533C39.9899 34.6533 38.7285 35.2067 37.8008 36.3135C36.8893 37.404 36.4336 38.8444 36.4336 40.6348H29.3535C29.3535 38.4701 29.8662 36.4925 30.8916 34.7021C31.9333 32.9118 33.3981 31.512 35.2861 30.5029C37.1742 29.4775 39.3145 28.9648 41.707 28.9648C45.3691 28.9648 48.2093 29.8437 50.2275 31.6016C52.262 33.3594 53.2793 35.8415 53.2793 39.0479C53.2793 40.8057 52.8236 42.596 51.9121 44.4189C51.0007 46.2419 49.4382 48.3659 47.2246 50.791L39.1436 59.3115H54.4268V65Z" fill="#F24822"/>
<path d="M251.427 374H227.062V369.166L238.561 356.91C240.139 355.185 241.303 353.679 242.052 352.394C242.817 351.108 243.199 349.887 243.199 348.731C243.199 347.153 242.8 345.916 242.003 345.021C241.205 344.109 240.066 343.653 238.585 343.653C236.99 343.653 235.729 344.207 234.801 345.313C233.889 346.404 233.434 347.844 233.434 349.635H226.354C226.354 347.47 226.866 345.493 227.892 343.702C228.933 341.912 230.398 340.512 232.286 339.503C234.174 338.478 236.314 337.965 238.707 337.965C242.369 337.965 245.209 338.844 247.228 340.602C249.262 342.359 250.279 344.841 250.279 348.048C250.279 349.806 249.824 351.596 248.912 353.419C248.001 355.242 246.438 357.366 244.225 359.791L236.144 368.312H251.427V374Z" fill="#F24822"/>
</svg>
