<svg width="283" height="396" viewBox="0 0 283 396" fill="none" xmlns="http://www.w3.org/2000/svg">
<rect x="2.62059" y="0.502687" width="279" height="393" rx="19.5" transform="rotate(0.308765 2.62059 0.502687)" fill="white" stroke="#D2D2D2"/>
<path fill-rule="evenodd" clip-rule="evenodd" d="M153.757 167.221C143.067 167.328 140.876 179.486 140.876 179.486C140.876 179.486 138.475 167.303 127.786 167.081C117.097 166.859 110.468 176.198 114.033 186.085C117.598 195.971 121.191 198.211 126.833 205.395C132.475 212.58 140.672 225 140.615 227.919C140.59 225 148.578 212.667 154.297 205.543C160.016 198.42 163.633 196.219 167.304 186.372C170.976 176.524 164.448 167.114 153.757 167.221Z" fill="#F24822"/>
<path d="M47.2021 29.0869V34.8975H46.5186C43.3285 34.9463 40.7568 35.7764 38.8037 37.3877C36.8669 38.999 35.7031 41.237 35.3125 44.1016C37.2005 42.181 39.585 41.2207 42.4658 41.2207C45.5583 41.2207 48.016 42.3275 49.8389 44.541C51.6618 46.7546 52.5732 49.668 52.5732 53.2812C52.5732 55.5924 52.0687 57.6839 51.0596 59.5557C50.0667 61.4274 48.6507 62.8841 46.8115 63.9258C44.9886 64.9674 42.9215 65.4883 40.6104 65.4883C36.8669 65.4883 33.8395 64.1862 31.5283 61.582C29.2334 58.9779 28.0859 55.5029 28.0859 51.1572V48.6182C28.0859 44.7607 28.8102 41.359 30.2588 38.4131C31.7236 35.4508 33.8151 33.1641 36.5332 31.5527C39.2676 29.9251 42.4333 29.1032 46.0303 29.0869H47.2021ZM40.3174 46.8848C39.1781 46.8848 38.1445 47.1859 37.2168 47.7881C36.2891 48.374 35.6055 49.1553 35.166 50.1318V52.2803C35.166 54.6403 35.6299 56.4876 36.5576 57.8223C37.4854 59.1406 38.7874 59.7998 40.4639 59.7998C41.9775 59.7998 43.1982 59.2057 44.126 58.0176C45.07 56.8131 45.542 55.2588 45.542 53.3545C45.542 51.4176 45.07 49.8551 44.126 48.667C43.182 47.4788 41.9124 46.8848 40.3174 46.8848Z" fill="#F24822"/>
<path d="M237.202 338.087V343.897H236.519C233.328 343.946 230.757 344.776 228.804 346.388C226.867 347.999 225.703 350.237 225.313 353.102C227.201 351.181 229.585 350.221 232.466 350.221C235.558 350.221 238.016 351.327 239.839 353.541C241.662 355.755 242.573 358.668 242.573 362.281C242.573 364.592 242.069 366.684 241.06 368.556C240.067 370.427 238.651 371.884 236.812 372.926C234.989 373.967 232.922 374.488 230.61 374.488C226.867 374.488 223.84 373.186 221.528 370.582C219.233 367.978 218.086 364.503 218.086 360.157V357.618C218.086 353.761 218.81 350.359 220.259 347.413C221.724 344.451 223.815 342.164 226.533 340.553C229.268 338.925 232.433 338.103 236.03 338.087H237.202ZM230.317 355.885C229.178 355.885 228.145 356.186 227.217 356.788C226.289 357.374 225.605 358.155 225.166 359.132V361.28C225.166 363.64 225.63 365.488 226.558 366.822C227.485 368.141 228.787 368.8 230.464 368.8C231.978 368.8 233.198 368.206 234.126 367.018C235.07 365.813 235.542 364.259 235.542 362.354C235.542 360.418 235.07 358.855 234.126 357.667C233.182 356.479 231.912 355.885 230.317 355.885Z" fill="#F24822"/>
</svg>
