<svg width="283" height="396" viewBox="0 0 283 396" fill="none" xmlns="http://www.w3.org/2000/svg">
<rect x="2.62059" y="0.502687" width="279" height="393" rx="19.5" transform="rotate(0.308765 2.62059 0.502687)" fill="white" stroke="#D2D2D2"/>
<path fill-rule="evenodd" clip-rule="evenodd" d="M153.757 167.221C143.067 167.328 140.876 179.486 140.876 179.486C140.876 179.486 138.475 167.303 127.786 167.081C117.097 166.859 110.468 176.198 114.033 186.085C117.598 195.971 121.191 198.211 126.833 205.395C132.475 212.58 140.672 225 140.615 227.919C140.59 225 148.578 212.667 154.297 205.543C160.017 198.42 163.633 196.219 167.305 186.372C170.976 176.524 164.448 167.114 153.757 167.221Z" fill="#F24822"/>
<path d="M51.2305 38.9014C51.2305 40.6266 50.7992 42.1566 49.9365 43.4912C49.0739 44.8258 47.8857 45.8919 46.3721 46.6895C48.0973 47.5195 49.4645 48.667 50.4736 50.1318C51.4827 51.5804 51.9873 53.2894 51.9873 55.2588C51.9873 58.4163 50.9131 60.9147 48.7646 62.7539C46.6162 64.5768 43.6947 65.4883 40 65.4883C36.3053 65.4883 33.3757 64.5687 31.2109 62.7295C29.0462 60.8903 27.9639 58.4001 27.9639 55.2588C27.9639 53.2894 28.4684 51.5723 29.4775 50.1074C30.4867 48.6426 31.8457 47.5033 33.5547 46.6895C32.041 45.8919 30.8529 44.8258 29.9902 43.4912C29.1439 42.1566 28.7207 40.6266 28.7207 38.9014C28.7207 35.874 29.7298 33.4652 31.748 31.6748C33.7663 29.8682 36.5088 28.9648 39.9756 28.9648C43.4261 28.9648 46.1605 29.86 48.1787 31.6504C50.2132 33.4245 51.2305 35.8415 51.2305 38.9014ZM44.9072 54.7461C44.9072 53.1999 44.4596 51.9629 43.5645 51.0352C42.6693 50.1074 41.4648 49.6436 39.9512 49.6436C38.4538 49.6436 37.2575 50.1074 36.3623 51.0352C35.4671 51.9466 35.0195 53.1836 35.0195 54.7461C35.0195 56.2598 35.459 57.4805 36.3379 58.4082C37.2168 59.3359 38.4375 59.7998 40 59.7998C41.5299 59.7998 42.7262 59.3522 43.5889 58.457C44.4678 57.5618 44.9072 56.3249 44.9072 54.7461ZM44.1748 39.2432C44.1748 37.8597 43.8086 36.7529 43.0762 35.9229C42.3438 35.0765 41.3102 34.6533 39.9756 34.6533C38.6572 34.6533 37.6318 35.0602 36.8994 35.874C36.167 36.6878 35.8008 37.8109 35.8008 39.2432C35.8008 40.6592 36.167 41.7985 36.8994 42.6611C37.6318 43.5238 38.6654 43.9551 40 43.9551C41.3346 43.9551 42.36 43.5238 43.0762 42.6611C43.8086 41.7985 44.1748 40.6592 44.1748 39.2432Z" fill="#F24822"/>
<path d="M249.23 347.901C249.23 349.627 248.799 351.157 247.937 352.491C247.074 353.826 245.886 354.892 244.372 355.689C246.097 356.52 247.465 357.667 248.474 359.132C249.483 360.58 249.987 362.289 249.987 364.259C249.987 367.416 248.913 369.915 246.765 371.754C244.616 373.577 241.695 374.488 238 374.488C234.305 374.488 231.376 373.569 229.211 371.729C227.046 369.89 225.964 367.4 225.964 364.259C225.964 362.289 226.468 360.572 227.478 359.107C228.487 357.643 229.846 356.503 231.555 355.689C230.041 354.892 228.853 353.826 227.99 352.491C227.144 351.157 226.721 349.627 226.721 347.901C226.721 344.874 227.73 342.465 229.748 340.675C231.766 338.868 234.509 337.965 237.976 337.965C241.426 337.965 244.16 338.86 246.179 340.65C248.213 342.424 249.23 344.841 249.23 347.901ZM242.907 363.746C242.907 362.2 242.46 360.963 241.564 360.035C240.669 359.107 239.465 358.644 237.951 358.644C236.454 358.644 235.257 359.107 234.362 360.035C233.467 360.947 233.02 362.184 233.02 363.746C233.02 365.26 233.459 366.48 234.338 367.408C235.217 368.336 236.438 368.8 238 368.8C239.53 368.8 240.726 368.352 241.589 367.457C242.468 366.562 242.907 365.325 242.907 363.746ZM242.175 348.243C242.175 346.86 241.809 345.753 241.076 344.923C240.344 344.076 239.31 343.653 237.976 343.653C236.657 343.653 235.632 344.06 234.899 344.874C234.167 345.688 233.801 346.811 233.801 348.243C233.801 349.659 234.167 350.799 234.899 351.661C235.632 352.524 236.665 352.955 238 352.955C239.335 352.955 240.36 352.524 241.076 351.661C241.809 350.799 242.175 349.659 242.175 348.243Z" fill="#F24822"/>
</svg>
