<svg width="280" height="395" viewBox="0 0 280 395" fill="none" xmlns="http://www.w3.org/2000/svg">
<rect x="0.5" y="1.25159" width="279" height="393" rx="19.5" fill="white" stroke="#D2D2D2"/>
<path fill-rule="evenodd" clip-rule="evenodd" d="M152.341 167.574C141.651 167.738 139.526 179.908 139.526 179.908C139.526 179.908 137.059 167.738 126.37 167.574C115.679 167.409 109.101 176.784 112.719 186.651C116.337 196.519 119.942 198.739 125.623 205.893C131.303 213.047 139.567 225.423 139.526 228.342C139.485 225.423 147.407 213.047 153.088 205.893C158.768 198.739 162.373 196.519 165.991 186.651C169.609 176.784 163.031 167.409 152.341 167.574Z" fill="#F24822"/>
<path d="M48.4209 53.6758H35.5791L33.1377 61H25.3496L38.582 25.4531H45.3691L58.6748 61H50.8867L48.4209 53.6758ZM37.5566 47.7432H46.4434L41.9756 34.4375L37.5566 47.7432Z" fill="#F24822"/>
<path d="M243.421 366.676H230.579L228.138 374H220.35L233.582 338.453H240.369L253.675 374H245.887L243.421 366.676ZM232.557 360.743H241.443L236.976 347.438L232.557 360.743Z" fill="#F24822"/>
</svg>
