<svg width="280" height="394" viewBox="0 0 280 394" fill="none" xmlns="http://www.w3.org/2000/svg">
<rect x="0.5" y="0.5" width="279" height="393" rx="19.5" fill="white" stroke="#D2D2D2"/>
<path fill-rule="evenodd" clip-rule="evenodd" d="M152.243 215.077C162.532 215.21 168.862 207.639 165.38 199.67C161.899 191.701 158.428 189.908 152.963 184.13C147.495 178.352 139.544 168.357 139.582 166C139.622 168.357 131.999 178.352 126.531 184.13C121.066 189.908 117.598 191.701 114.114 199.67C110.632 207.639 116.964 215.21 127.25 215.077C134.313 214.986 137.491 210.326 138.787 207.413L138.787 211.226C138.787 211.226 136.533 224.979 120.62 226.484L118.084 226.484L118.084 228.627L161.413 228.627L161.413 226.484L158.873 226.484C142.964 224.979 140.707 211.226 140.707 211.226L140.707 207.914C142.234 210.83 145.573 214.991 152.243 215.077Z" fill="#1A1919"/>
<path d="M43.54 29.4531H50.8643V54.0625C50.8643 56.3249 50.3597 58.3268 49.3506 60.0684C48.3577 61.7936 46.9499 63.1283 45.127 64.0723C43.304 65.0163 41.2451 65.4883 38.9502 65.4883C35.1904 65.4883 32.2607 64.5361 30.1611 62.6318C28.0615 60.7113 27.0117 58.0013 27.0117 54.502H34.3848C34.3848 56.2435 34.751 57.5293 35.4834 58.3594C36.2158 59.1895 37.3714 59.6045 38.9502 59.6045C40.3499 59.6045 41.4648 59.1243 42.2949 58.1641C43.125 57.2038 43.54 55.8366 43.54 54.0625V29.4531Z" fill="#1A1919"/>
<path d="M239.54 338.453H246.864V363.062C246.864 365.325 246.36 367.327 245.351 369.068C244.358 370.794 242.95 372.128 241.127 373.072C239.304 374.016 237.245 374.488 234.95 374.488C231.19 374.488 228.261 373.536 226.161 371.632C224.062 369.711 223.012 367.001 223.012 363.502H230.385C230.385 365.243 230.751 366.529 231.483 367.359C232.216 368.189 233.371 368.604 234.95 368.604C236.35 368.604 237.465 368.124 238.295 367.164C239.125 366.204 239.54 364.837 239.54 363.062V338.453Z" fill="#1A1919"/>
</svg>
