<svg width="280" height="394" viewBox="0 0 280 394" fill="none" xmlns="http://www.w3.org/2000/svg">
<rect x="0.5" y="0.5" width="279" height="393" rx="19.5" fill="white" stroke="#D2D2D2"/>
<path fill-rule="evenodd" clip-rule="evenodd" d="M152.243 215.077C162.532 215.21 168.862 207.639 165.38 199.67C161.899 191.701 158.428 189.908 152.963 184.13C147.495 178.352 139.544 168.357 139.582 166C139.622 168.357 131.999 178.352 126.531 184.13C121.066 189.908 117.598 191.701 114.114 199.67C110.632 207.639 116.964 215.21 127.25 215.077C134.313 214.986 137.491 210.326 138.787 207.413L138.787 211.226C138.787 211.226 136.533 224.979 120.62 226.484L118.084 226.484L118.084 228.627L161.413 228.627L161.413 226.484L158.873 226.484C142.964 224.979 140.707 211.226 140.707 211.226L140.707 207.914C142.234 210.83 145.573 214.991 152.243 215.077Z" fill="#1A1919"/>
<path d="M38.4375 50.7422L34.6289 54.8437V65H27.3047V29.4531H34.6289V45.5664L37.8516 41.1475L46.9092 29.4531H55.918L43.2959 45.249L56.2842 65H47.5684L38.4375 50.7422Z" fill="#1A1919"/>
<path d="M232.438 359.742L228.629 363.844V374H221.305V338.453H228.629V354.566L231.852 350.147L240.909 338.453H249.918L237.296 354.249L250.284 374H241.568L232.438 359.742Z" fill="#1A1919"/>
</svg>
