<svg width="280" height="394" viewBox="0 0 280 394" fill="none" xmlns="http://www.w3.org/2000/svg">
<rect x="0.5" y="0.5" width="279" height="393" rx="19.5" fill="white" stroke="#D2D2D2"/>
<path fill-rule="evenodd" clip-rule="evenodd" d="M152.243 215.077C162.532 215.21 168.862 207.639 165.38 199.67C161.899 191.701 158.428 189.908 152.963 184.13C147.495 178.352 139.544 168.357 139.582 166C139.622 168.357 131.999 178.352 126.531 184.13C121.066 189.908 117.598 191.701 114.114 199.67C110.632 207.639 116.964 215.21 127.25 215.077C134.313 214.986 137.491 210.326 138.787 207.413L138.787 211.226C138.787 211.226 136.533 224.979 120.62 226.484L118.084 226.484L118.084 228.627L161.413 228.627L161.413 226.484L158.873 226.484C142.964 224.979 140.707 211.226 140.707 211.226L140.707 207.914C142.234 210.83 145.573 214.991 152.243 215.077Z" fill="#1A1919"/>
<path d="M55.0635 48.0322C55.0635 51.3525 54.5264 54.2415 53.4521 56.6992C52.3779 59.1406 50.8887 61.1019 48.9844 62.583L54.8926 67.2217L50.2295 71.3477L42.6611 65.2686C41.7985 65.415 40.9033 65.4883 39.9756 65.4883C37.0296 65.4883 34.401 64.7803 32.0898 63.3643C29.7786 61.9482 27.9883 59.93 26.7188 57.3096C25.4492 54.6728 24.8063 51.6455 24.79 48.2275V46.4697C24.79 42.9704 25.4167 39.8942 26.6699 37.2412C27.9395 34.5719 29.7217 32.5293 32.0166 31.1133C34.3278 29.681 36.9645 28.9648 39.9268 28.9648C42.889 28.9648 45.5176 29.681 47.8125 31.1133C50.1237 32.5293 51.9059 34.5719 53.1592 37.2412C54.4287 39.8942 55.0635 42.9622 55.0635 46.4453V48.0322ZM47.6416 46.4209C47.6416 42.6937 46.9743 39.8617 45.6396 37.9248C44.305 35.988 42.4007 35.0195 39.9268 35.0195C37.4691 35.0195 35.5729 35.9798 34.2383 37.9004C32.9036 39.8047 32.2282 42.6042 32.2119 46.2988V48.0322C32.2119 51.6618 32.8792 54.4775 34.2139 56.4795C35.5485 58.4814 37.4691 59.4824 39.9756 59.4824C42.4333 59.4824 44.3213 58.5221 45.6396 56.6016C46.958 54.6647 47.6253 51.849 47.6416 48.1543V46.4209Z" fill="#1A1919"/>
<path d="M251.063 357.032C251.063 360.353 250.526 363.242 249.452 365.699C248.378 368.141 246.889 370.102 244.984 371.583L250.893 376.222L246.229 380.348L238.661 374.269C237.799 374.415 236.903 374.488 235.976 374.488C233.03 374.488 230.401 373.78 228.09 372.364C225.779 370.948 223.988 368.93 222.719 366.31C221.449 363.673 220.806 360.646 220.79 357.228V355.47C220.79 351.97 221.417 348.894 222.67 346.241C223.939 343.572 225.722 341.529 228.017 340.113C230.328 338.681 232.965 337.965 235.927 337.965C238.889 337.965 241.518 338.681 243.812 340.113C246.124 341.529 247.906 343.572 249.159 346.241C250.429 348.894 251.063 351.962 251.063 355.445V357.032ZM243.642 355.421C243.642 351.694 242.974 348.862 241.64 346.925C240.305 344.988 238.401 344.02 235.927 344.02C233.469 344.02 231.573 344.98 230.238 346.9C228.904 348.805 228.228 351.604 228.212 355.299V357.032C228.212 360.662 228.879 363.478 230.214 365.479C231.549 367.481 233.469 368.482 235.976 368.482C238.433 368.482 240.321 367.522 241.64 365.602C242.958 363.665 243.625 360.849 243.642 357.154V355.421Z" fill="#1A1919"/>
</svg>
